<svg width="315" height="151" viewBox="0 0 315 151" fill="none" xmlns="http://www.w3.org/2000/svg">
<path d="M253.92 0.599609H59.94C59.94 0.599609 57.84 99.1096 0.790039 119.37H313.07C256.02 99.1096 253.92 0.599609 253.92 0.599609Z" fill="url(#paint0_linear_2060_3144)"/>
<path style="mix-blend-mode:screen" d="M157.67 140.2C244.406 140.2 314.72 130.623 314.72 118.81C314.72 106.997 244.406 97.4199 157.67 97.4199C70.9338 97.4199 0.620117 106.997 0.620117 118.81C0.620117 130.623 70.9338 140.2 157.67 140.2Z" fill="url(#paint1_radial_2060_3144)"/>
<path d="M314.73 119.369H0.939941V150.749H314.73V119.369Z" fill="url(#paint2_linear_2060_3144)"/>
<defs>
<linearGradient id="paint0_linear_2060_3144" x1="156.93" y1="-19.8504" x2="156.93" y2="124.55" gradientUnits="userSpaceOnUse">
<stop stop-color="#4C0941"/>
<stop offset="0.3" stop-color="#360D30"/>
<stop offset="0.74" stop-color="#1D121B"/>
<stop offset="1" stop-color="#141414"/>
</linearGradient>
<radialGradient id="paint1_radial_2060_3144" cx="0" cy="0" r="1" gradientUnits="userSpaceOnUse" gradientTransform="translate(155.416 105.849) scale(158.242 21.5784)">
<stop stop-color="#474747"/>
<stop offset="0.1" stop-color="#373737"/>
<stop offset="0.3" stop-color="#1F1F1F"/>
<stop offset="0.51" stop-color="#0D0D0D"/>
<stop offset="0.73" stop-color="#030303"/>
<stop offset="1"/>
</radialGradient>
<linearGradient id="paint2_linear_2060_3144" x1="-80.9201" y1="135.069" x2="363.03" y2="135.069" gradientUnits="userSpaceOnUse">
<stop stop-color="#171717"/>
<stop offset="0.12" stop-color="#222222"/>
<stop offset="0.31" stop-color="#2C2C2C"/>
<stop offset="0.53" stop-color="#303030"/>
<stop offset="0.7" stop-color="#2A2A2A"/>
<stop offset="0.92" stop-color="#1B1B1B"/>
<stop offset="1" stop-color="#141414"/>
</linearGradient>
</defs>
</svg>
