<svg width="643" height="643" viewBox="0 0 643 643" fill="none" xmlns="http://www.w3.org/2000/svg">
<path d="M321.99 642.02C499.279 642.02 643 498.299 643 321.01C643 143.721 499.279 0 321.99 0C144.701 0 0.97998 143.721 0.97998 321.01C0.97998 498.299 144.701 642.02 321.99 642.02Z" fill="url(#paint0_linear_2059_2494)"/>
<path d="M321.99 640.03C498.18 640.03 641.01 497.2 641.01 321.01C641.01 144.82 498.18 1.99023 321.99 1.99023C145.8 1.99023 2.96973 144.82 2.96973 321.01C2.96973 497.2 145.8 640.03 321.99 640.03Z" fill="#282428"/>
<path d="M321.99 618.52C486.3 618.52 619.5 485.32 619.5 321.01C619.5 156.7 486.3 23.5 321.99 23.5C157.68 23.5 24.48 156.7 24.48 321.01C24.48 485.32 157.68 618.52 321.99 618.52Z" fill="#303030"/>
<path d="M321.99 610.74C482.003 610.74 611.72 481.024 611.72 321.01C611.72 160.997 482.003 31.2803 321.99 31.2803C161.976 31.2803 32.2598 160.997 32.2598 321.01C32.2598 481.024 161.976 610.74 321.99 610.74Z" fill="url(#paint1_linear_2059_2494)"/>
<path d="M321.99 321.01H608.3C608.3 268.85 594.35 219.95 569.98 177.83L321.99 321.01Z" fill="white"/>
<path d="M321.99 321.01L569.98 177.831C544.84 134.381 508.61 98.1505 465.17 73.0205L321.99 321.01Z" fill="#FF8517"/>
<path d="M465.17 73.0202C423.05 48.6502 374.15 34.7002 321.99 34.7002V321.01L465.17 73.0202Z" fill="white"/>
<path d="M321.99 321.01L178.81 569C220.93 593.37 269.83 607.32 321.99 607.32V321.01Z" fill="white"/>
<path d="M321.99 321.01V607.32C374.15 607.32 423.05 593.37 465.17 569L321.99 321.01Z" fill="#FF8517"/>
<path d="M465.17 569.01C508.62 543.87 544.85 507.64 569.98 464.201L321.99 321.021L465.17 569.01Z" fill="white"/>
<path d="M321.99 321.01L569.98 464.19C594.35 422.07 608.3 373.17 608.3 321.01H321.99Z" fill="#FF8517"/>
<path d="M321.99 34.7002C269.83 34.7002 220.93 48.6502 178.81 73.0202L321.99 321.01V34.7002Z" fill="#FF8517"/>
<path d="M321.99 321.01L74.0002 177.83C49.6302 219.95 35.6802 268.85 35.6802 321.01H321.99Z" fill="#FF8517"/>
<path d="M321.99 321.01L178.81 73.0205C135.36 98.1605 99.13 134.391 74 177.831L321.99 321.01Z" fill="white"/>
<path d="M74 464.19C99.14 507.64 135.37 543.87 178.81 569L321.99 321.01L74 464.19Z" fill="#FF8517"/>
<path d="M321.99 321.01H35.6802C35.6802 373.17 49.6302 422.07 74.0002 464.19L321.99 321.01Z" fill="white"/>
<g style="mix-blend-mode:multiply" opacity="0.6">
<path opacity="0.05" d="M384.72 398.794C419.465 364.049 419.465 307.716 384.72 272.972C349.975 238.227 293.642 238.227 258.897 272.972C224.152 307.716 224.152 364.049 258.897 398.794C293.642 433.539 349.975 433.539 384.72 398.794Z" fill="#F5F3F5"/>
<path opacity="0.1" d="M383.416 396.529C417.45 362.494 417.45 307.314 383.416 273.28C349.381 239.246 294.201 239.246 260.167 273.28C226.133 307.314 226.133 362.494 260.167 396.529C294.201 430.563 349.381 430.563 383.416 396.529Z" fill="#EBE8EB"/>
<path opacity="0.14" d="M382.111 394.249C415.435 360.925 415.435 306.897 382.111 273.574C348.788 240.25 294.76 240.25 261.437 273.574C228.113 306.897 228.113 360.925 261.437 394.249C294.76 427.572 348.788 427.572 382.111 394.249Z" fill="#E1DCE0"/>
<path opacity="0.19" d="M380.808 391.983C413.42 359.37 413.42 306.495 380.808 273.882C348.195 241.269 295.319 241.269 262.707 273.882C230.094 306.495 230.094 359.37 262.707 391.983C295.319 424.596 348.195 424.596 380.808 391.983Z" fill="#D8D0D6"/>
<path opacity="0.24" d="M379.506 389.71C411.408 357.808 411.408 306.085 379.506 274.183C347.605 242.281 295.881 242.281 263.979 274.183C232.077 306.085 232.077 357.808 263.979 389.71C295.881 421.612 347.605 421.612 379.506 389.71Z" fill="#CEC4CC"/>
<path opacity="0.29" d="M378.21 387.438C409.401 356.246 409.401 305.675 378.21 274.484C347.018 243.293 296.448 243.293 265.256 274.484C234.065 305.675 234.065 356.246 265.256 387.438C296.448 418.629 347.018 418.629 378.21 387.438Z" fill="#C4B9C2"/>
<path opacity="0.33" d="M376.898 385.164C407.379 354.684 407.379 305.265 376.898 274.785C346.418 244.305 296.999 244.305 266.519 274.785C236.038 305.265 236.038 354.684 266.519 385.164C296.999 415.645 346.418 415.645 376.898 385.164Z" fill="#BAADB7"/>
<path opacity="0.38" d="M375.595 382.899C405.364 353.129 405.364 304.863 375.595 275.093C345.825 245.324 297.559 245.324 267.789 275.093C238.019 304.863 238.019 353.129 267.789 382.899C297.559 412.669 345.825 412.669 375.595 382.899Z" fill="#B0A1AD"/>
<path opacity="0.43" d="M374.29 380.619C403.349 351.56 403.349 304.446 374.29 275.387C345.231 246.328 298.118 246.328 269.059 275.387C240 304.446 240 351.56 269.059 380.619C298.118 409.678 345.231 409.678 374.29 380.619Z" fill="#A696A3"/>
<path opacity="0.48" d="M372.979 378.346C401.323 350.002 401.323 304.047 372.979 275.703C344.635 247.358 298.68 247.358 270.335 275.703C241.991 304.047 241.991 350.002 270.335 378.346C298.68 406.69 344.635 406.69 372.979 378.346Z" fill="#9C8A99"/>
<path opacity="0.52" d="M371.675 376.081C399.308 348.447 399.308 303.645 371.675 276.011C344.041 248.378 299.239 248.378 271.605 276.011C243.972 303.645 243.972 348.447 271.605 376.081C299.239 403.714 344.041 403.714 371.675 376.081Z" fill="#937E8E"/>
<path opacity="0.57" d="M370.381 373.801C397.304 346.878 397.304 303.228 370.381 276.305C343.458 249.382 299.808 249.382 272.885 276.305C245.962 303.228 245.962 346.878 272.885 373.801C299.808 400.723 343.458 400.723 370.381 373.801Z" fill="#897284"/>
<path opacity="0.62" d="M369.077 371.534C395.289 345.322 395.289 302.824 369.077 276.612C342.865 250.4 300.367 250.4 274.155 276.612C247.943 302.824 247.943 345.322 274.155 371.534C300.367 397.746 342.865 397.746 369.077 371.534Z" fill="#7F677A"/>
<path opacity="0.67" d="M367.766 369.262C393.267 343.761 393.267 302.415 367.766 276.914C342.265 251.413 300.919 251.413 275.418 276.914C249.916 302.415 249.916 343.761 275.418 369.262C300.919 394.763 342.265 394.763 367.766 369.262Z" fill="#755B70"/>
<path opacity="0.71" d="M366.469 366.989C391.26 342.198 391.26 302.005 366.469 277.214C341.679 252.424 301.485 252.424 276.695 277.214C251.904 302.005 251.904 342.198 276.695 366.989C301.485 391.779 341.679 391.779 366.469 366.989Z" fill="#6B4F65"/>
<path opacity="0.76" d="M365.158 364.707C389.238 340.627 389.238 301.586 365.158 277.506C341.078 253.427 302.037 253.427 277.958 277.506C253.878 301.586 253.878 340.627 277.958 364.707C302.037 388.786 341.078 388.786 365.158 364.707Z" fill="#61445B"/>
<path opacity="0.81" d="M363.854 362.44C387.223 339.071 387.223 301.183 363.854 277.814C340.485 254.445 302.596 254.445 279.227 277.814C255.858 301.183 255.858 339.071 279.227 362.44C302.596 385.809 340.485 385.809 363.854 362.44Z" fill="#573851"/>
<path opacity="0.86" d="M362.55 360.16C385.208 337.502 385.208 300.766 362.55 278.107C339.891 255.449 303.155 255.449 280.497 278.107C257.839 300.766 257.839 337.502 280.497 360.16C303.155 382.818 339.891 382.818 362.55 360.16Z" fill="#4E2C47"/>
<path opacity="0.9" d="M361.256 357.895C383.203 335.947 383.203 300.363 361.256 278.416C339.308 256.468 303.724 256.468 281.777 278.416C259.83 300.363 259.83 335.947 281.777 357.895C303.724 379.842 339.308 379.842 361.256 357.895Z" fill="#44203C"/>
<path opacity="0.95" d="M359.937 355.615C381.17 334.383 381.17 299.957 359.937 278.725C338.704 257.492 304.279 257.492 283.046 278.725C261.814 299.957 261.814 334.383 283.046 355.615C304.279 376.848 338.704 376.848 359.937 355.615Z" fill="#3A1532"/>
<path d="M358.64 353.342C379.162 332.82 379.162 299.547 358.64 279.025C338.118 258.503 304.846 258.503 284.323 279.025C263.801 299.547 263.801 332.82 284.324 353.342C304.846 373.864 338.118 373.864 358.64 353.342Z" fill="#300928"/>
</g>
<path d="M321.9 379.87C355.02 379.87 381.87 353.02 381.87 319.9C381.87 286.779 355.02 259.93 321.9 259.93C288.779 259.93 261.93 286.779 261.93 319.9C261.93 353.02 288.779 379.87 321.9 379.87Z" fill="#9C6791"/>
<g style="mix-blend-mode:multiply" opacity="0.5">
<path opacity="0.05" d="M360.341 358.339C381.57 337.11 381.57 302.691 360.341 281.462C339.112 260.233 304.693 260.233 283.464 281.462C262.235 302.691 262.235 337.11 283.464 358.339C304.693 379.568 339.112 379.568 360.341 358.339Z" fill="#F6F3F5"/>
<path opacity="0.1" d="M359.952 357.95C380.966 336.936 380.966 302.865 359.952 281.851C338.938 260.837 304.867 260.837 283.853 281.851C262.839 302.865 262.839 336.936 283.853 357.95C304.867 378.964 338.938 378.964 359.952 357.95Z" fill="#EDE7EB"/>
<path opacity="0.14" d="M359.556 357.554C380.351 336.758 380.351 303.042 359.556 282.247C338.761 261.452 305.045 261.452 284.249 282.247C263.454 303.042 263.454 336.758 284.249 357.554C305.045 378.349 338.761 378.349 359.556 357.554Z" fill="#E4DBE1"/>
<path opacity="0.19" d="M359.167 357.165C379.748 336.584 379.748 303.217 359.167 282.636C338.586 262.055 305.219 262.055 284.638 282.636C264.057 303.217 264.057 336.584 284.638 357.165C305.219 377.746 338.586 377.746 359.167 357.165Z" fill="#DCCED7"/>
<path opacity="0.24" d="M358.771 356.769C379.133 336.407 379.133 303.394 358.771 283.032C338.409 262.67 305.396 262.67 285.034 283.032C264.672 303.394 264.672 336.407 285.034 356.769C305.396 377.131 338.409 377.131 358.771 356.769Z" fill="#D3C2CD"/>
<path opacity="0.29" d="M358.382 356.38C378.529 336.233 378.529 303.568 358.382 283.421C338.235 263.274 305.57 263.274 285.423 283.421C265.276 303.568 265.276 336.233 285.423 356.38C305.57 376.527 338.235 376.527 358.382 356.38Z" fill="#CAB6C3"/>
<path opacity="0.33" d="M357.993 355.991C377.926 336.059 377.926 303.742 357.993 283.81C338.061 263.877 305.744 263.877 285.812 283.81C265.88 303.742 265.88 336.059 285.812 355.991C305.744 375.923 338.061 375.923 357.993 355.991Z" fill="#C1AAB9"/>
<path opacity="0.38" d="M357.597 355.595C377.311 335.881 377.311 303.919 357.597 284.206C337.884 264.492 305.922 264.492 286.208 284.206C266.494 303.919 266.494 335.881 286.208 355.595C305.922 375.309 337.884 375.309 357.597 355.595Z" fill="#B89EAF"/>
<path opacity="0.43" d="M357.209 355.206C376.707 335.707 376.707 304.093 357.209 284.595C337.71 265.096 306.096 265.096 286.597 284.595C267.098 304.093 267.098 335.707 286.597 355.206C306.096 374.705 337.71 374.705 357.209 355.206Z" fill="#AF92A5"/>
<path opacity="0.48" d="M356.813 354.81C376.093 335.53 376.093 304.271 356.813 284.991C337.532 265.71 306.273 265.71 286.993 284.991C267.713 304.271 267.713 335.53 286.993 354.81C306.273 374.09 337.532 374.09 356.813 354.81Z" fill="#A6869B"/>
<path opacity="0.52" d="M356.424 354.421C375.489 335.356 375.489 304.445 356.424 285.379C337.358 266.314 306.447 266.314 287.382 285.379C268.316 304.445 268.316 335.356 287.382 354.421C306.447 373.487 337.358 373.487 356.424 354.421Z" fill="#9E7991"/>
<path opacity="0.57" d="M356.027 354.025C374.874 335.179 374.874 304.622 356.027 285.775C337.181 266.929 306.624 266.929 287.777 285.775C268.931 304.622 268.931 335.179 287.777 354.025C306.624 372.872 337.181 372.872 356.027 354.025Z" fill="#956D87"/>
<path opacity="0.62" d="M355.639 353.636C374.271 335.005 374.271 304.796 355.639 286.164C337.007 267.532 306.799 267.532 288.167 286.164C269.535 304.796 269.535 335.005 288.167 353.636C306.799 372.268 337.007 372.268 355.639 353.636Z" fill="#8C617D"/>
<path opacity="0.67" d="M355.249 353.248C373.667 334.83 373.667 304.97 355.249 286.553C336.832 268.136 306.972 268.136 288.555 286.553C270.138 304.97 270.138 334.83 288.555 353.248C306.972 371.665 336.832 371.665 355.249 353.248Z" fill="#835573"/>
<path opacity="0.71" d="M354.853 352.852C373.052 334.653 373.052 305.148 354.854 286.949C336.655 268.751 307.15 268.751 288.951 286.949C270.753 305.148 270.753 334.653 288.951 352.852C307.15 371.05 336.655 371.05 354.853 352.852Z" fill="#7A4969"/>
<path opacity="0.76" d="M354.465 352.463C372.448 334.479 372.448 305.322 354.465 287.338C336.481 269.354 307.324 269.354 289.34 287.338C271.356 305.322 271.356 334.479 289.34 352.463C307.324 370.446 336.481 370.446 354.465 352.463Z" fill="#713D5F"/>
<path opacity="0.81" d="M354.069 352.067C371.834 334.302 371.834 305.499 354.069 287.734C336.304 269.969 307.501 269.969 289.736 287.734C271.971 305.499 271.971 334.302 289.736 352.067C307.501 369.832 336.304 369.832 354.069 352.067Z" fill="#683155"/>
<path opacity="0.86" d="M353.68 351.678C371.23 334.128 371.23 305.673 353.68 288.123C336.13 270.573 307.675 270.573 290.125 288.123C272.575 305.673 272.575 334.128 290.125 351.678C307.675 369.228 336.13 369.228 353.68 351.678Z" fill="#60244B"/>
<path opacity="0.9" d="M353.284 351.282C370.615 333.95 370.615 305.851 353.284 288.519C335.952 271.188 307.852 271.188 290.521 288.519C273.19 305.85 273.19 333.95 290.521 351.282C307.853 368.613 335.952 368.613 353.284 351.282Z" fill="#571841"/>
<path opacity="0.95" d="M352.895 350.893C370.012 333.776 370.012 306.025 352.895 288.908C335.778 271.791 308.027 271.791 290.91 288.908C273.793 306.025 273.793 333.776 290.91 350.893C308.027 368.01 335.778 368.01 352.895 350.893Z" fill="#4E0C37"/>
<path d="M352.499 350.497C369.397 333.599 369.397 306.202 352.499 289.304C335.601 272.406 308.204 272.406 291.306 289.304C274.408 306.202 274.408 333.599 291.306 350.497C308.204 367.395 335.601 367.395 352.499 350.497Z" fill="#45002D"/>
</g>
<path d="M321.9 364.45C346.504 364.45 366.45 344.504 366.45 319.9C366.45 295.295 346.504 275.35 321.9 275.35C297.296 275.35 277.35 295.295 277.35 319.9C277.35 344.504 297.296 364.45 321.9 364.45Z" fill="url(#paint2_linear_2059_2494)"/>
<g style="mix-blend-mode:overlay">
<path d="M326.04 34.6904H318.17V260.13H326.04V34.6904Z" fill="#666666"/>
</g>
<g style="mix-blend-mode:overlay">
<path d="M182.328 71.0279L175.513 74.9629L288.233 270.2L295.048 266.265L182.328 71.0279Z" fill="#666666"/>
</g>
<g style="mix-blend-mode:overlay">
<path d="M76.0502 174.344L72.1152 181.159L267.352 293.879L271.287 287.064L76.0502 174.344Z" fill="#666666"/>
</g>
<g style="mix-blend-mode:overlay">
<path d="M261.11 316.971H35.6699V324.841H261.11V316.971Z" fill="#666666"/>
</g>
<g style="mix-blend-mode:overlay">
<path d="M267.242 347.942L72.0054 460.662L75.9404 467.478L271.177 354.758L267.242 347.942Z" fill="#666666"/>
</g>
<g style="mix-blend-mode:overlay">
<path d="M288.048 371.681L175.328 566.918L182.143 570.853L294.863 375.616L288.048 371.681Z" fill="#666666"/>
</g>
<g style="mix-blend-mode:overlay">
<path d="M325.82 381.9H317.95V607.34H325.82V381.9Z" fill="#666666"/>
</g>
<g style="mix-blend-mode:overlay">
<path d="M355.741 371.832L348.925 375.767L461.645 571.003L468.461 567.068L355.741 371.832Z" fill="#666666"/>
</g>
<g style="mix-blend-mode:overlay">
<path d="M376.625 348.144L372.69 354.96L567.927 467.68L571.862 460.864L376.625 348.144Z" fill="#666666"/>
</g>
<g style="mix-blend-mode:overlay">
<path d="M608.32 317.19H382.88V325.06H608.32V317.19Z" fill="#666666"/>
</g>
<g style="mix-blend-mode:overlay">
<path d="M568.046 174.54L372.81 287.26L376.745 294.075L571.981 181.355L568.046 174.54Z" fill="#666666"/>
</g>
<g style="mix-blend-mode:overlay">
<path d="M461.843 71.1343L349.123 266.371L355.939 270.306L468.659 75.0693L461.843 71.1343Z" fill="#666666"/>
</g>
<path d="M283.288 186.391L284.157 189.697L282.822 190.048L281.953 186.741C281.785 186.101 281.547 185.609 281.239 185.266C280.93 184.923 280.571 184.708 280.161 184.622C279.749 184.531 279.311 184.546 278.846 184.668C278.421 184.78 278.046 184.978 277.721 185.263C277.395 185.543 277.17 185.911 277.048 186.367C276.92 186.825 276.94 187.374 277.108 188.014L277.876 190.938L288.91 188.04L289.341 189.68L276.964 192.932L275.765 188.367C275.519 187.432 275.473 186.599 275.626 185.868C275.78 185.137 276.099 184.529 276.583 184.045C277.062 183.561 277.667 183.224 278.398 183.032C279.191 182.823 279.912 182.813 280.561 183C281.21 183.186 281.767 183.564 282.231 184.133C282.69 184.703 283.042 185.456 283.288 186.391ZM274.28 178.252L286.637 179.386L287.076 181.061L273.46 179.594L273.177 178.515L274.28 178.252ZM284.658 171.855L274.456 178.924L273.366 179.237L273.083 178.158L284.216 170.171L284.658 171.855ZM280.132 173.271L281.475 172.918L283.302 179.871L281.959 180.224L280.132 173.271ZM270.492 168.297L282.869 165.046L283.293 166.661L270.916 169.912L270.492 168.297ZM269.447 164.319L270.79 163.966L273.302 173.529L271.959 173.882L269.447 164.319ZM268.502 160.723L280.879 157.472L281.31 159.112L268.933 162.364L268.502 160.723ZM276.695 146.975L278.03 146.625L279.751 153.179L278.417 153.529L276.695 146.975ZM267.287 156.099L279.664 152.847L280.095 154.488L267.718 157.739L267.287 156.099ZM271.202 149.345L272.536 148.995L274.03 154.682L272.696 155.032L271.202 149.345ZM265.675 149.961L267.018 149.609L268.718 156.078L267.374 156.43L265.675 149.961ZM262.618 138.324L274.995 135.072L275.428 136.722L267.519 145.46L277.065 142.953L277.496 144.593L265.119 147.845L264.688 146.204L272.616 137.433L263.044 139.948L262.618 138.324ZM260.719 131.099L273.096 127.847L273.521 129.462L261.144 132.714L260.719 131.099ZM259.674 127.12L261.017 126.767L263.53 136.331L262.187 136.683L259.674 127.12ZM257.716 119.665L270.093 116.414L270.524 118.054L258.147 121.306L257.716 119.665ZM261.921 113.017L263.264 112.664L264.72 118.207L263.377 118.56L261.921 113.017ZM256.132 113.638L257.475 113.285L259.153 119.669L257.809 120.022L256.132 113.638ZM258.913 100.631L259.695 100.425C260.624 100.181 261.488 100.079 262.285 100.117C263.083 100.156 263.797 100.326 264.427 100.627C265.058 100.928 265.589 101.349 266.022 101.889C266.454 102.424 266.768 103.068 266.966 103.822C267.158 104.553 267.199 105.26 267.087 105.944C266.975 106.622 266.719 107.252 266.321 107.835C265.922 108.413 265.386 108.92 264.713 109.358C264.04 109.795 263.239 110.136 262.31 110.38L261.528 110.585C260.598 110.829 259.737 110.928 258.943 110.882C258.142 110.832 257.426 110.654 256.794 110.347C256.157 110.042 255.622 109.622 255.191 109.088C254.758 108.547 254.446 107.911 254.254 107.18C254.056 106.426 254.013 105.711 254.126 105.033C254.237 104.349 254.496 103.721 254.903 103.147C255.302 102.57 255.84 102.068 256.516 101.642C257.184 101.212 257.983 100.875 258.913 100.631ZM260.121 102.049L259.322 102.259C258.585 102.453 257.954 102.7 257.427 103.002C256.899 103.298 256.481 103.642 256.171 104.032C255.862 104.422 255.663 104.853 255.575 105.325C255.485 105.79 255.509 106.287 255.648 106.814C255.782 107.324 256.002 107.76 256.309 108.121C256.615 108.477 256.999 108.752 257.462 108.945C257.923 109.133 258.458 109.232 259.066 109.242C259.675 109.251 260.347 109.16 261.084 108.966L261.883 108.756C262.626 108.561 263.262 108.309 263.793 108C264.318 107.692 264.737 107.34 265.051 106.942C265.357 106.541 265.556 106.11 265.647 105.65C265.737 105.184 265.715 104.696 265.581 104.186C265.441 103.653 265.217 103.206 264.91 102.845C264.603 102.483 264.22 102.211 263.76 102.029C263.293 101.843 262.757 101.75 262.151 101.752C261.54 101.755 260.864 101.854 260.121 102.049ZM258.948 90.0077L258.519 88.3756C259.323 88.2551 260.082 88.2951 260.795 88.4955C261.508 88.6959 262.133 89.08 262.67 89.6478C263.201 90.217 263.597 90.9975 263.858 91.9893C264.048 92.7147 264.086 93.4106 263.97 94.0771C263.853 94.7379 263.601 95.3464 263.214 95.9024C262.821 96.46 262.304 96.9472 261.662 97.3642C261.013 97.777 260.255 98.0973 259.388 98.3251L258.156 98.6489C257.288 98.8767 256.474 98.9695 255.712 98.9275C254.942 98.8812 254.249 98.709 253.631 98.4108C253.012 98.107 252.486 97.6847 252.053 97.1442C251.621 96.6036 251.304 95.9508 251.103 95.1857C250.857 94.2507 250.825 93.4139 251.007 92.6756C251.188 91.9372 251.544 91.3077 252.073 90.7869C252.596 90.2619 253.254 89.8497 254.048 89.5503L254.476 91.1824C253.919 91.4136 253.462 91.6912 253.105 92.0153C252.742 92.3408 252.5 92.7317 252.377 93.1879C252.255 93.6442 252.278 94.1925 252.446 94.8329C252.59 95.3826 252.822 95.8396 253.142 96.2038C253.461 96.5624 253.85 96.8328 254.309 97.0149C254.768 97.1914 255.285 97.2797 255.86 97.2799C256.436 97.2802 257.052 97.1939 257.71 97.0212L258.959 96.6929C259.566 96.5336 260.119 96.3217 260.619 96.057C261.117 95.7868 261.533 95.4684 261.867 95.102C262.201 94.7356 262.431 94.3207 262.558 93.8573C262.679 93.3954 262.667 92.8896 262.523 92.3399C262.34 91.6428 262.083 91.1165 261.754 90.7609C261.424 90.4052 261.025 90.1769 260.556 90.0759C260.086 89.9693 259.55 89.9465 258.948 90.0077ZM247.63 81.2766L247.201 79.6445L255.575 77.4447C256.504 77.2005 257.332 77.2041 258.058 77.4556C258.785 77.707 259.394 78.1346 259.886 78.7384C260.37 79.3381 260.718 80.0374 260.927 80.8365C261.148 81.6752 261.194 82.4748 261.067 83.2352C260.932 83.9915 260.608 84.6491 260.095 85.2081C259.58 85.7614 258.858 86.1602 257.928 86.4043L249.555 88.6041L249.129 86.9805L257.502 84.7807C258.148 84.611 258.649 84.352 259.006 84.0038C259.363 83.6556 259.588 83.2422 259.68 82.7636C259.771 82.2793 259.742 81.7538 259.593 81.1871C259.443 80.6147 259.209 80.1428 258.894 79.7714C258.577 79.3943 258.177 79.1418 257.695 79.014C257.213 78.8861 256.649 78.9071 256.003 79.0768L247.63 81.2766ZM254.04 68.0425C253.751 68.1185 253.508 68.2308 253.311 68.3795C253.107 68.5241 252.943 68.7307 252.82 68.9994C252.695 69.2623 252.601 69.6081 252.538 70.0366C252.473 70.4595 252.433 70.9851 252.416 71.6135C252.395 72.2732 252.339 72.8786 252.248 73.4297C252.151 73.9823 252.004 74.4722 251.807 74.8995C251.61 75.3268 251.35 75.6831 251.025 75.9684C250.7 76.2536 250.296 76.4595 249.815 76.5861C249.333 76.7126 248.862 76.7304 248.402 76.6392C247.942 76.548 247.513 76.3577 247.116 76.0683C246.712 75.7747 246.357 75.3923 246.051 74.9213C245.746 74.4503 245.51 73.8974 245.343 73.2627C245.099 72.3333 245.07 71.4987 245.258 70.7588C245.438 70.0148 245.77 69.3976 246.253 68.9072C246.73 68.4183 247.292 68.089 247.938 67.9192L248.366 69.5513C247.902 69.6734 247.517 69.8805 247.212 70.1727C246.901 70.4663 246.697 70.8411 246.599 71.2971C246.495 71.7545 246.524 72.2921 246.686 72.9098C246.84 73.4935 247.054 73.9522 247.329 74.2857C247.605 74.6192 247.917 74.8401 248.267 74.9482C248.615 75.0506 248.981 75.0512 249.367 74.9499C249.627 74.8815 249.851 74.7651 250.038 74.6008C250.218 74.4324 250.368 74.2082 250.489 73.9282C250.608 73.6426 250.696 73.2983 250.754 72.8954C250.81 72.4868 250.842 72.0089 250.849 71.4617C250.863 70.7068 250.925 70.0424 251.035 69.4683C251.144 68.8943 251.309 68.4027 251.529 67.9936C251.741 67.5804 252.019 67.2438 252.363 66.9839C252.699 66.7198 253.108 66.5244 253.59 66.3979C254.095 66.2654 254.578 66.2475 255.039 66.3443C255.501 66.4412 255.926 66.6415 256.315 66.9452C256.704 67.249 257.047 67.6464 257.346 68.1374C257.637 68.6242 257.869 69.1935 258.04 69.8452C258.19 70.4176 258.259 71.0023 258.246 71.5994C258.232 72.1908 258.126 72.7548 257.928 73.2916C257.728 73.8226 257.431 74.2852 257.038 74.6793C256.638 75.0693 256.129 75.3454 255.511 75.5076L255.082 73.8755C255.507 73.7639 255.851 73.5857 256.114 73.3409C256.371 73.0977 256.562 72.8083 256.686 72.4728C256.808 72.1317 256.87 71.7671 256.871 71.3791C256.865 70.987 256.81 70.5925 256.705 70.1958C256.555 69.6235 256.348 69.1598 256.085 68.8048C255.822 68.4498 255.517 68.209 255.169 68.0824C254.819 67.9501 254.443 67.9368 254.04 68.0425Z" fill="white"/>
<path d="M218.577 419.251L221.112 416.957L222.038 417.98L219.503 420.274C219.012 420.718 218.685 421.156 218.523 421.588C218.36 422.019 218.335 422.437 218.448 422.841C218.556 423.249 218.771 423.631 219.094 423.987C219.388 424.313 219.737 424.554 220.14 424.711C220.539 424.872 220.969 424.902 221.43 424.801C221.895 424.703 222.373 424.433 222.864 423.989L225.106 421.96L217.452 413.501L218.71 412.363L227.296 421.852L223.796 425.018C223.079 425.667 222.361 426.092 221.642 426.292C220.922 426.493 220.236 426.489 219.583 426.283C218.933 426.08 218.355 425.699 217.848 425.138C217.297 424.53 216.956 423.895 216.823 423.233C216.69 422.57 216.769 421.902 217.06 421.228C217.355 420.558 217.86 419.899 218.577 419.251ZM215.502 430.994L210.818 419.504L212.101 418.342L217.07 431.104L216.243 431.853L215.502 430.994ZM205.043 424.729L216.016 430.529L216.797 431.352L215.969 432.101L203.753 425.896L205.043 424.729ZM208.385 428.094L207.453 427.064L212.784 422.24L213.716 423.27L208.385 428.094ZM208.409 438.941L199.823 429.452L201.061 428.332L209.647 437.821L208.409 438.941ZM205.359 441.701L204.427 440.671L211.759 434.037L212.691 435.067L205.359 441.701ZM202.602 444.195L194.016 434.706L195.274 433.568L203.86 443.057L202.602 444.195ZM186.626 443.254L185.7 442.231L190.725 437.684L191.651 438.707L186.626 443.254ZM199.057 447.403L190.471 437.914L191.729 436.776L200.315 446.265L199.057 447.403ZM191.26 447.039L190.334 446.015L194.694 442.07L195.62 443.093L191.26 447.039ZM194.352 451.661L193.42 450.631L198.379 446.144L199.311 447.173L194.352 451.661ZM185.43 459.734L176.844 450.245L178.108 449.101L189.507 452.097L182.885 444.778L184.143 443.64L192.729 453.129L191.471 454.267L180.034 451.269L186.674 458.607L185.43 459.734ZM179.89 464.746L171.304 455.257L172.542 454.137L181.128 463.626L179.89 464.746ZM176.84 467.506L175.908 466.476L183.24 459.842L184.172 460.872L176.84 467.506ZM171.124 472.678L162.538 463.189L163.796 462.051L172.382 471.54L171.124 472.678ZM163.286 472.006L162.355 470.976L166.604 467.132L167.536 468.161L163.286 472.006ZM166.504 476.859L165.572 475.829L170.466 471.4L171.398 472.43L166.504 476.859ZM153.677 480.381L153.135 479.781C152.49 479.069 152.001 478.349 151.668 477.623C151.335 476.897 151.157 476.185 151.134 475.487C151.111 474.789 151.24 474.123 151.52 473.49C151.796 472.861 152.223 472.285 152.801 471.762C153.362 471.255 153.971 470.894 154.629 470.677C155.282 470.465 155.96 470.402 156.661 470.487C157.357 470.575 158.055 470.818 158.752 471.213C159.45 471.609 160.122 472.163 160.766 472.876L161.309 473.475C161.954 474.188 162.438 474.907 162.763 475.633C163.087 476.366 163.259 477.084 163.278 477.786C163.3 478.493 163.174 479.161 162.898 479.79C162.617 480.423 162.197 480.993 161.636 481.5C161.058 482.023 160.443 482.39 159.789 482.603C159.131 482.819 158.454 482.878 157.758 482.781C157.061 482.692 156.368 482.446 155.679 482.043C154.989 481.647 154.322 481.093 153.677 480.381ZM154.38 478.655L154.934 479.267C155.445 479.832 155.956 480.279 156.466 480.607C156.972 480.939 157.47 481.153 157.959 481.248C158.448 481.343 158.922 481.321 159.381 481.182C159.836 481.047 160.265 480.797 160.669 480.431C161.06 480.077 161.345 479.681 161.525 479.242C161.7 478.807 161.767 478.339 161.726 477.839C161.68 477.344 161.521 476.823 161.25 476.279C160.978 475.734 160.587 475.18 160.076 474.615L159.522 474.002C159.007 473.433 158.49 472.984 157.971 472.655C157.456 472.331 156.95 472.121 156.453 472.026C155.956 471.938 155.482 471.96 155.031 472.091C154.576 472.226 154.153 472.471 153.762 472.825C153.354 473.194 153.06 473.598 152.88 474.037C152.701 474.476 152.636 474.942 152.686 475.434C152.736 475.934 152.901 476.453 153.181 476.989C153.465 477.531 153.865 478.086 154.38 478.655ZM144.231 485.242L142.98 486.374C142.503 485.715 142.189 485.023 142.038 484.298C141.888 483.573 141.941 482.841 142.198 482.103C142.458 481.37 142.969 480.659 143.729 479.971C144.285 479.468 144.886 479.114 145.531 478.91C146.171 478.709 146.828 478.653 147.499 478.74C148.175 478.832 148.846 479.067 149.511 479.445C150.177 479.83 150.81 480.356 151.412 481.02L152.267 481.965C152.868 482.63 153.326 483.311 153.639 484.007C153.953 484.711 154.119 485.406 154.139 486.091C154.154 486.781 154.022 487.442 153.741 488.075C153.46 488.708 153.027 489.29 152.44 489.821C151.724 490.469 150.996 490.883 150.256 491.062C149.517 491.241 148.795 491.215 148.089 490.985C147.382 490.763 146.713 490.368 146.082 489.802L147.333 488.67C147.795 489.058 148.252 489.336 148.704 489.503C149.16 489.676 149.619 489.711 150.08 489.609C150.542 489.508 151.018 489.235 151.509 488.791C151.93 488.41 152.229 487.993 152.405 487.542C152.577 487.094 152.637 486.624 152.587 486.132C152.533 485.644 152.373 485.144 152.108 484.633C151.844 484.122 151.483 483.615 151.027 483.111L150.16 482.153C149.74 481.688 149.297 481.294 148.832 480.972C148.362 480.654 147.888 480.432 147.409 480.304C146.93 480.176 146.456 480.163 145.986 480.264C145.52 480.369 145.077 480.613 144.655 480.994C144.121 481.478 143.772 481.948 143.608 482.404C143.444 482.86 143.425 483.32 143.551 483.783C143.673 484.249 143.9 484.735 144.231 485.242ZM141.693 499.308L140.442 500.441L134.633 494.021C133.988 493.309 133.61 492.572 133.499 491.812C133.388 491.051 133.487 490.313 133.796 489.599C134.105 488.892 134.566 488.262 135.179 487.708C135.822 487.126 136.51 486.716 137.244 486.479C137.977 486.25 138.71 486.235 139.443 486.433C140.171 486.636 140.858 487.093 141.502 487.806L147.311 494.225L146.066 495.351L140.257 488.932C139.809 488.437 139.349 488.111 138.875 487.955C138.402 487.798 137.931 487.789 137.464 487.928C136.992 488.07 136.539 488.338 136.105 488.731C135.666 489.128 135.354 489.552 135.17 490.003C134.981 490.459 134.941 490.929 135.05 491.416C135.158 491.903 135.436 492.394 135.884 492.889L141.693 499.308ZM126.994 499.713C127.194 499.934 127.406 500.098 127.629 500.205C127.851 500.32 128.11 500.37 128.405 500.356C128.696 500.345 129.046 500.27 129.456 500.128C129.861 499.991 130.346 499.785 130.912 499.51C131.507 499.225 132.07 498.996 132.601 498.823C133.136 498.655 133.639 498.56 134.109 498.537C134.579 498.515 135.015 498.583 135.418 498.74C135.821 498.897 136.189 499.16 136.523 499.529C136.858 499.899 137.09 500.308 137.221 500.759C137.352 501.209 137.381 501.677 137.307 502.163C137.232 502.657 137.056 503.148 136.779 503.636C136.501 504.125 136.119 504.589 135.633 505.029C134.92 505.674 134.192 506.083 133.449 506.258C132.706 506.441 132.005 506.43 131.348 506.227C130.694 506.029 130.143 505.682 129.695 505.187L130.946 504.054C131.268 504.411 131.629 504.657 132.029 504.793C132.433 504.933 132.86 504.942 133.31 504.82C133.764 504.701 134.227 504.428 134.701 503.999C135.148 503.594 135.457 503.193 135.626 502.795C135.795 502.397 135.847 502.018 135.782 501.658C135.713 501.302 135.545 500.976 135.277 500.68C135.097 500.481 134.89 500.335 134.658 500.245C134.426 500.163 134.158 500.133 133.854 500.155C133.546 500.181 133.199 500.261 132.815 500.396C132.427 500.534 131.988 500.726 131.498 500.971C130.822 501.306 130.204 501.557 129.644 501.724C129.084 501.891 128.571 501.972 128.107 501.965C127.642 501.967 127.216 501.875 126.827 501.689C126.437 501.512 126.075 501.239 125.741 500.87C125.391 500.483 125.153 500.063 125.026 499.608C124.9 499.154 124.882 498.684 124.972 498.199C125.063 497.714 125.257 497.226 125.556 496.735C125.854 496.252 126.252 495.785 126.752 495.332C127.191 494.935 127.678 494.605 128.214 494.341C128.746 494.082 129.295 493.916 129.863 493.845C130.426 493.778 130.974 493.828 131.504 493.996C132.035 494.171 132.515 494.496 132.943 494.97L131.692 496.102C131.397 495.776 131.08 495.553 130.742 495.432C130.408 495.316 130.063 495.28 129.708 495.325C129.349 495.373 128.997 495.486 128.652 495.664C128.307 495.85 127.982 496.08 127.678 496.356C127.239 496.753 126.923 497.15 126.729 497.546C126.535 497.943 126.462 498.325 126.51 498.693C126.553 499.064 126.715 499.404 126.994 499.713Z" fill="white"/>
<path d="M459.43 361.624L456.142 360.687L456.52 359.36L459.808 360.297C460.445 360.478 460.989 360.524 461.441 360.433C461.894 360.343 462.261 360.143 462.544 359.834C462.833 359.526 463.043 359.141 463.175 358.679C463.296 358.257 463.316 357.833 463.236 357.408C463.162 356.985 462.959 356.604 462.629 356.266C462.301 355.923 461.818 355.66 461.181 355.479L458.273 354.65L455.146 365.621L453.515 365.156L457.023 352.85L461.562 354.143C462.492 354.409 463.232 354.793 463.783 355.297C464.333 355.802 464.694 356.386 464.864 357.05C465.036 357.708 465.018 358.401 464.811 359.128C464.586 359.916 464.228 360.542 463.737 361.005C463.245 361.469 462.637 361.755 461.911 361.865C461.186 361.969 460.359 361.889 459.43 361.624ZM471.022 358.019L463.751 368.074L462.086 367.599L470.285 356.63L471.358 356.936L471.022 358.019ZM471.24 370.209L470.354 357.829L470.64 356.731L471.713 357.037L472.913 370.686L471.24 370.209ZM472.327 365.593L471.946 366.928L465.032 364.957L465.413 363.622L472.327 365.593ZM481.518 359.832L478.01 372.139L476.404 371.681L479.912 359.374L481.518 359.832ZM485.474 360.959L485.093 362.295L475.584 359.584L475.965 358.249L485.474 360.959ZM489.049 361.979L485.541 374.285L483.91 373.82L487.418 361.514L489.049 361.979ZM496.704 376.033L496.326 377.36L489.809 375.502L490.188 374.175L496.704 376.033ZM493.647 363.289L490.139 375.596L488.508 375.131L492.016 362.824L493.647 363.289ZM497.464 370.098L497.086 371.425L491.431 369.814L491.809 368.486L497.464 370.098ZM499.75 365.029L499.369 366.364L492.937 364.531L493.317 363.195L499.75 365.029ZM511.321 368.327L507.813 380.634L506.173 380.166L502.683 368.908L499.978 378.4L498.346 377.935L501.854 365.629L503.486 366.094L506.994 377.384L509.707 367.867L511.321 368.327ZM518.505 370.375L514.998 382.682L513.392 382.224L516.9 369.917L518.505 370.375ZM522.461 371.503L522.081 372.838L512.572 370.128L512.952 368.792L522.461 371.503ZM529.874 373.616L526.366 385.922L524.735 385.457L528.243 373.151L529.874 373.616ZM533.452 380.622L533.071 381.957L527.56 380.386L527.941 379.051L533.452 380.622ZM535.867 375.324L535.486 376.659L529.138 374.85L529.519 373.514L535.867 375.324ZM545.643 384.343L545.421 385.121C545.158 386.045 544.806 386.84 544.366 387.507C543.926 388.174 543.416 388.702 542.836 389.091C542.256 389.48 541.623 389.723 540.938 389.82C540.258 389.919 539.543 389.861 538.794 389.647C538.067 389.44 537.437 389.115 536.906 388.671C536.38 388.228 535.968 387.687 535.669 387.048C535.375 386.41 535.212 385.69 535.178 384.888C535.145 384.087 535.26 383.224 535.523 382.3L535.745 381.522C536.008 380.598 536.362 379.806 536.806 379.147C537.257 378.483 537.775 377.958 538.361 377.57C538.948 377.177 539.582 376.931 540.262 376.833C540.948 376.736 541.654 376.791 542.381 376.998C543.13 377.212 543.768 377.54 544.294 377.982C544.825 378.426 545.234 378.969 545.52 379.611C545.814 380.249 545.971 380.967 545.994 381.766C546.023 382.56 545.906 383.419 545.643 384.343ZM543.807 384.661L544.033 383.866C544.242 383.134 544.351 382.464 544.359 381.857C544.373 381.252 544.291 380.717 544.113 380.252C543.935 379.787 543.665 379.396 543.305 379.08C542.949 378.765 542.51 378.533 541.986 378.384C541.479 378.24 540.991 378.207 540.524 378.287C540.062 378.369 539.63 378.559 539.227 378.859C538.831 379.16 538.473 379.57 538.155 380.089C537.837 380.607 537.573 381.233 537.364 381.965L537.138 382.76C536.927 383.498 536.82 384.174 536.815 384.788C536.813 385.397 536.902 385.937 537.084 386.409C537.274 386.878 537.543 387.268 537.893 387.581C538.248 387.896 538.679 388.125 539.186 388.27C539.716 388.421 540.215 388.456 540.682 388.376C541.15 388.296 541.579 388.105 541.97 387.802C542.368 387.495 542.721 387.081 543.028 386.559C543.337 386.032 543.596 385.399 543.807 384.661ZM554.766 389.786L556.389 390.249C556.082 391.002 555.662 391.635 555.126 392.146C554.59 392.658 553.941 393 553.179 393.172C552.419 393.339 551.545 393.282 550.559 393.001C549.838 392.796 549.22 392.473 548.705 392.034C548.197 391.597 547.801 391.07 547.52 390.453C547.24 389.831 547.085 389.138 547.053 388.374C547.028 387.605 547.139 386.79 547.385 385.927L547.734 384.702C547.98 383.84 548.315 383.091 548.739 382.457C549.171 381.818 549.673 381.309 550.244 380.93C550.821 380.552 551.452 380.315 552.138 380.218C552.823 380.121 553.547 380.181 554.307 380.397C555.237 380.662 555.973 381.061 556.516 381.594C557.059 382.126 557.419 382.753 557.598 383.474C557.783 384.191 557.803 384.967 557.656 385.803L556.033 385.34C556.118 384.743 556.112 384.208 556.015 383.736C555.92 383.258 555.707 382.85 555.377 382.512C555.047 382.174 554.563 381.914 553.927 381.733C553.38 381.577 552.868 381.544 552.392 381.634C551.921 381.725 551.49 381.922 551.099 382.225C550.714 382.529 550.375 382.929 550.081 383.424C549.788 383.919 549.548 384.494 549.362 385.147L549.007 386.39C548.836 386.993 548.736 387.577 548.709 388.142C548.688 388.709 548.75 389.229 548.895 389.703C549.04 390.177 549.28 390.586 549.614 390.931C549.95 391.271 550.391 391.518 550.937 391.674C551.631 391.872 552.214 391.919 552.688 391.817C553.162 391.714 553.562 391.487 553.888 391.135C554.219 390.785 554.512 390.335 554.766 389.786ZM568.045 384.496L569.668 384.959L567.295 393.284C567.031 394.208 566.606 394.919 566.02 395.416C565.433 395.913 564.755 396.219 563.985 396.335C563.222 396.446 562.443 396.389 561.649 396.162C560.815 395.925 560.103 395.557 559.514 395.06C558.931 394.559 558.531 393.945 558.311 393.219C558.098 392.494 558.122 391.669 558.386 390.745L560.759 382.419L562.373 382.879L560 391.205C559.817 391.847 559.784 392.411 559.902 392.895C560.02 393.38 560.261 393.784 560.626 394.107C560.997 394.432 561.464 394.675 562.027 394.835C562.596 394.997 563.121 395.037 563.601 394.955C564.087 394.874 564.508 394.659 564.864 394.31C565.219 393.96 565.489 393.464 565.672 392.822L568.045 384.496ZM576.167 396.755C576.248 396.467 576.276 396.201 576.248 395.955C576.228 395.706 576.134 395.46 575.965 395.217C575.802 394.975 575.553 394.718 575.216 394.446C574.885 394.175 574.454 393.872 573.921 393.537C573.364 393.184 572.872 392.827 572.444 392.467C572.018 392.102 571.672 391.726 571.404 391.339C571.137 390.952 570.963 390.546 570.883 390.121C570.803 389.697 570.831 389.245 570.968 388.766C571.104 388.287 571.329 387.872 571.642 387.523C571.955 387.173 572.337 386.902 572.788 386.707C573.247 386.509 573.757 386.398 574.318 386.376C574.879 386.353 575.475 386.431 576.106 386.611C577.03 386.875 577.763 387.275 578.304 387.813C578.852 388.347 579.215 388.947 579.39 389.613C579.568 390.273 579.565 390.924 579.382 391.566L577.759 391.104C577.891 390.641 577.909 390.205 577.813 389.794C577.718 389.377 577.5 389.01 577.158 388.693C576.817 388.37 576.339 388.122 575.725 387.947C575.145 387.781 574.641 387.732 574.214 387.799C573.786 387.866 573.437 388.022 573.166 388.268C572.901 388.515 572.713 388.831 572.604 389.214C572.53 389.473 572.516 389.725 572.562 389.969C572.616 390.21 572.732 390.454 572.912 390.7C573.097 390.947 573.348 391.199 573.665 391.454C573.988 391.71 574.383 391.981 574.85 392.267C575.493 392.663 576.033 393.055 576.471 393.442C576.909 393.828 577.248 394.221 577.488 394.618C577.736 395.011 577.884 395.422 577.932 395.85C577.988 396.275 577.948 396.726 577.811 397.205C577.668 397.707 577.437 398.131 577.119 398.479C576.8 398.827 576.411 399.091 575.952 399.271C575.493 399.45 574.975 399.544 574.401 399.55C573.833 399.553 573.226 399.462 572.578 399.278C572.009 399.115 571.47 398.877 570.963 398.561C570.462 398.248 570.03 397.869 569.669 397.425C569.314 396.983 569.067 396.492 568.928 395.953C568.797 395.409 568.819 394.831 568.994 394.216L570.617 394.679C570.496 395.102 570.474 395.488 570.551 395.839C570.629 396.185 570.781 396.496 571.007 396.773C571.238 397.053 571.52 397.291 571.853 397.49C572.194 397.685 572.562 397.838 572.956 397.951C573.525 398.113 574.029 398.171 574.469 398.126C574.908 398.08 575.271 397.94 575.557 397.705C575.849 397.471 576.053 397.155 576.167 396.755Z" fill="white"/>
<path d="M219.734 230.05L228.783 221.001L229.964 222.182L220.915 231.231L219.734 230.05ZM216.826 227.142L217.808 226.16L224.8 233.151L223.818 234.133L216.826 227.142ZM215.484 225.799L212.488 222.804C211.808 222.124 211.338 221.447 211.077 220.771C210.812 220.092 210.76 219.427 210.922 218.776C211.075 218.126 211.446 217.507 212.034 216.918C212.449 216.504 212.913 216.21 213.426 216.036C213.932 215.862 214.462 215.812 215.017 215.887C215.564 215.961 216.113 216.158 216.664 216.477L217.13 216.682L219.946 219.497L218.982 220.486L216.857 218.36C216.426 217.929 215.993 217.645 215.558 217.509C215.119 217.376 214.698 217.366 214.296 217.478C213.895 217.589 213.538 217.801 213.228 218.111C212.88 218.459 212.643 218.832 212.519 219.23C212.395 219.628 212.409 220.044 212.563 220.479C212.708 220.914 213.01 221.362 213.47 221.822L215.266 223.618L223.333 215.551L224.532 216.75L215.484 225.799ZM219.243 211.462L217.342 217.763L216.086 216.52L217.889 210.256L217.963 210.181L219.243 211.462ZM205.092 213.805L216.335 208.553L217.559 209.777L205.061 215.377L204.272 214.588L205.092 213.805ZM210.829 203.047L205.583 214.296L204.8 215.116L204.011 214.327L209.598 201.816L210.829 203.047ZM207.634 206.552L208.616 205.57L213.7 210.654L212.718 211.636L207.634 206.552ZM192.377 202.693L201.426 193.644L202.631 194.849L200.208 206.384L207.187 199.405L208.386 200.604L199.337 209.653L198.138 208.454L200.562 196.882L193.564 203.88L192.377 202.693ZM192.19 188.983C191.979 189.194 191.826 189.414 191.731 189.641C191.627 189.869 191.59 190.13 191.619 190.424C191.644 190.715 191.737 191.06 191.898 191.462C192.056 191.86 192.286 192.335 192.588 192.886C192.903 193.466 193.16 194.017 193.359 194.539C193.554 195.065 193.674 195.562 193.719 196.03C193.765 196.498 193.719 196.938 193.583 197.348C193.446 197.758 193.201 198.139 192.849 198.491C192.497 198.843 192.099 199.096 191.656 199.25C191.213 199.403 190.747 199.455 190.258 199.405C189.76 199.355 189.261 199.204 188.76 198.951C188.259 198.698 187.776 198.34 187.312 197.876C186.632 197.197 186.187 196.49 185.976 195.757C185.756 195.023 185.731 194.323 185.901 193.656C186.067 192.993 186.386 192.426 186.858 191.953L188.051 193.147C187.712 193.486 187.484 193.859 187.368 194.265C187.248 194.675 187.26 195.102 187.405 195.545C187.546 195.993 187.842 196.442 188.294 196.894C188.72 197.321 189.137 197.609 189.543 197.758C189.949 197.907 190.33 197.94 190.686 197.857C191.039 197.77 191.356 197.586 191.637 197.304C191.828 197.114 191.963 196.9 192.041 196.664C192.112 196.428 192.128 196.159 192.091 195.856C192.05 195.55 191.952 195.208 191.799 194.831C191.641 194.45 191.428 194.021 191.159 193.544C190.79 192.886 190.508 192.281 190.314 191.73C190.119 191.179 190.013 190.671 189.997 190.207C189.972 189.743 190.042 189.312 190.208 188.914C190.365 188.517 190.62 188.142 190.972 187.789C191.341 187.421 191.749 187.162 192.197 187.013C192.644 186.863 193.112 186.822 193.601 186.888C194.09 186.955 194.587 187.124 195.093 187.398C195.59 187.671 196.077 188.046 196.553 188.523C196.972 188.941 197.326 189.411 197.616 189.934C197.902 190.451 198.094 190.992 198.194 191.556C198.289 192.115 198.266 192.664 198.126 193.203C197.976 193.741 197.676 194.236 197.224 194.688L196.031 193.495C196.342 193.184 196.549 192.857 196.653 192.513C196.752 192.173 196.771 191.827 196.709 191.475C196.642 191.118 196.512 190.773 196.317 190.437C196.114 190.101 195.868 189.789 195.577 189.498C195.159 189.08 194.747 188.784 194.341 188.61C193.935 188.436 193.549 188.382 193.185 188.448C192.816 188.51 192.485 188.688 192.19 188.983ZM184.857 184.172L187.275 186.59L186.299 187.566L183.881 185.148C183.413 184.68 182.959 184.375 182.52 184.235C182.081 184.094 181.663 184.09 181.265 184.222C180.863 184.351 180.492 184.585 180.152 184.924C179.842 185.235 179.618 185.596 179.481 186.006C179.34 186.412 179.332 186.843 179.456 187.298C179.576 187.758 179.871 188.222 180.339 188.691L182.477 190.828L190.543 182.762L191.743 183.961L182.694 193.01L179.357 189.672C178.673 188.989 178.213 188.293 177.977 187.584C177.741 186.876 177.71 186.19 177.884 185.527C178.054 184.868 178.406 184.272 178.94 183.737C179.521 183.157 180.138 182.784 180.792 182.619C181.447 182.453 182.118 182.499 182.806 182.755C183.49 183.016 184.173 183.489 184.857 184.172ZM172.974 181.686L184.217 176.435L185.441 177.659L172.943 183.259L172.154 182.47L172.974 181.686ZM178.711 170.929L173.465 182.177L172.682 182.998L171.893 182.209L177.48 169.698L178.711 170.929ZM175.516 174.434L176.498 173.452L181.582 178.536L180.6 179.518L175.516 174.434ZM167.219 177.535L164.224 174.539C163.544 173.86 163.074 173.183 162.813 172.507C162.548 171.828 162.496 171.163 162.658 170.512C162.811 169.862 163.182 169.242 163.77 168.654C164.184 168.24 164.648 167.946 165.162 167.772C165.668 167.598 166.198 167.548 166.753 167.622C167.3 167.697 167.849 167.894 168.4 168.213L168.866 168.418L171.682 171.233L170.718 172.221L168.593 170.096C168.162 169.665 167.729 169.381 167.294 169.244C166.855 169.112 166.434 169.101 166.032 169.213C165.63 169.325 165.274 169.537 164.963 169.847C164.615 170.195 164.379 170.568 164.255 170.966C164.131 171.364 164.145 171.78 164.298 172.215C164.443 172.65 164.746 173.098 165.206 173.558L167.002 175.354L175.069 167.287L176.268 168.486L167.219 177.535ZM170.979 163.197L169.078 169.499L167.822 168.256L169.624 161.992L169.699 161.917L170.979 163.197ZM161.701 155.87L162.676 154.894L167.468 159.686L166.492 160.662L161.701 155.87ZM158.177 168.492L167.226 159.444L168.425 160.643L159.376 169.692L158.177 168.492ZM158.152 160.687L159.128 159.711L163.285 163.869L162.31 164.844L158.152 160.687ZM153.69 164.005L154.672 163.023L159.401 167.753L158.419 168.735L153.69 164.005ZM145.182 155.497L154.23 146.449L155.436 147.654L153.012 159.189L159.992 152.21L161.191 153.409L152.142 162.458L150.943 161.258L153.367 149.686L146.369 156.684L145.182 155.497ZM143.765 141.738L142.571 140.544C143.205 140.035 143.881 139.687 144.597 139.5C145.314 139.314 146.048 139.331 146.797 139.55C147.543 139.774 148.279 140.248 149.004 140.973C149.534 141.504 149.917 142.086 150.153 142.72C150.385 143.349 150.475 144.002 150.421 144.677C150.363 145.357 150.162 146.038 149.818 146.722C149.466 147.406 148.973 148.064 148.339 148.698L147.438 149.599C146.804 150.233 146.147 150.724 145.468 151.072C144.78 151.42 144.094 151.621 143.41 151.675C142.723 151.725 142.056 151.625 141.409 151.377C140.763 151.128 140.16 150.724 139.601 150.165C138.917 149.481 138.468 148.775 138.252 148.046C138.037 147.317 138.026 146.594 138.221 145.877C138.407 145.16 138.768 144.472 139.302 143.813L140.496 145.007C140.131 145.487 139.876 145.958 139.731 146.417C139.582 146.881 139.57 147.341 139.694 147.797C139.818 148.253 140.114 148.715 140.583 149.183C140.985 149.585 141.415 149.863 141.875 150.016C142.331 150.165 142.803 150.202 143.292 150.128C143.777 150.049 144.268 149.865 144.765 149.575C145.262 149.285 145.751 148.899 146.232 148.419L147.146 147.505C147.589 147.062 147.96 146.6 148.258 146.119C148.552 145.634 148.751 145.15 148.855 144.665C148.958 144.18 148.948 143.706 148.824 143.242C148.695 142.782 148.43 142.351 148.028 141.949C147.518 141.439 147.032 141.114 146.568 140.973C146.103 140.832 145.644 140.837 145.188 140.986C144.728 141.131 144.254 141.381 143.765 141.738ZM134.349 144.665L136.543 137.773L129.645 139.96L128.284 138.599L137.071 136.051L140.452 132.67L141.652 133.87L138.271 137.251L135.723 146.038L134.349 144.665Z" fill="#FF8517"/>
<path d="M294.009 449.493L281.837 445.545L282.352 443.956L294.524 447.904L294.009 449.493ZM292.74 453.406L291.419 452.977L294.47 443.572L295.791 444L292.74 453.406ZM292.154 455.211L290.847 459.241C290.551 460.155 290.161 460.882 289.678 461.421C289.194 461.966 288.625 462.315 287.972 462.466C287.323 462.625 286.602 462.577 285.811 462.32C285.254 462.139 284.781 461.859 284.392 461.481C284.008 461.11 283.722 460.66 283.536 460.131C283.354 459.61 283.28 459.032 283.314 458.396L283.285 457.888L284.513 454.1L285.831 454.509L284.904 457.369C284.716 457.948 284.66 458.463 284.736 458.913C284.817 459.364 284.999 459.743 285.281 460.051C285.564 460.358 285.914 460.579 286.332 460.715C286.8 460.866 287.239 460.907 287.65 460.837C288.061 460.767 288.425 460.565 288.743 460.231C289.065 459.904 289.326 459.431 289.526 458.813L290.31 456.396L279.458 452.877L279.982 451.263L292.154 455.211ZM277.674 458.378L284.152 457.208L283.615 458.891L277.216 460.133L277.116 460.1L277.674 458.378ZM286.192 469.918L276.405 462.291L276.939 460.644L287.607 469.232L287.263 470.293L286.192 469.918ZM274.003 469.698L286.407 469.258L287.493 469.583L287.149 470.645L273.466 471.353L274.003 469.698ZM278.577 470.95L277.256 470.522L279.474 463.683L280.795 464.112L278.577 470.95ZM282.073 486.295L269.9 482.347L270.426 480.725L281.802 477.642L272.414 474.597L272.937 472.983L285.11 476.931L284.586 478.545L273.177 481.645L282.591 484.698L282.073 486.295ZM269.945 492.692C270.229 492.784 270.495 492.821 270.741 492.802C270.991 492.791 271.24 492.705 271.489 492.546C271.736 492.392 272.002 492.151 272.287 491.825C272.569 491.504 272.888 491.083 273.241 490.564C273.615 490.02 273.989 489.54 274.363 489.126C274.743 488.713 275.132 488.38 275.528 488.127C275.924 487.874 276.336 487.715 276.764 487.65C277.191 487.585 277.642 487.63 278.116 487.784C278.589 487.937 278.995 488.177 279.333 488.502C279.671 488.827 279.929 489.219 280.107 489.677C280.289 490.142 280.381 490.656 280.384 491.217C280.387 491.779 280.287 492.371 280.084 492.996C279.788 493.91 279.361 494.628 278.804 495.149C278.25 495.678 277.638 496.018 276.966 496.17C276.301 496.324 275.65 496.298 275.015 496.091L275.535 494.486C275.992 494.634 276.428 494.668 276.842 494.587C277.262 494.507 277.637 494.302 277.966 493.972C278.3 493.643 278.566 493.175 278.763 492.567C278.949 491.993 279.017 491.491 278.965 491.062C278.913 490.632 278.77 490.278 278.534 489.998C278.296 489.724 277.988 489.525 277.609 489.403C277.353 489.319 277.101 489.296 276.855 489.334C276.613 489.378 276.366 489.486 276.113 489.656C275.859 489.833 275.599 490.075 275.332 490.383C275.064 490.696 274.779 491.081 274.477 491.538C274.058 492.165 273.647 492.691 273.245 493.115C272.843 493.539 272.439 493.864 272.033 494.089C271.631 494.322 271.215 494.456 270.785 494.489C270.359 494.529 269.91 494.473 269.436 494.319C268.94 494.158 268.524 493.912 268.187 493.581C267.851 493.251 267.602 492.852 267.438 492.387C267.275 491.921 267.201 491.401 267.214 490.827C267.232 490.259 267.345 489.655 267.553 489.014C267.735 488.451 267.993 487.922 268.326 487.427C268.658 486.937 269.052 486.519 269.509 486.175C269.964 485.836 270.463 485.606 271.007 485.487C271.554 485.375 272.132 485.418 272.739 485.615L272.219 487.22C271.801 487.084 271.415 487.049 271.062 487.113C270.714 487.178 270.397 487.319 270.112 487.534C269.824 487.755 269.576 488.029 269.365 488.355C269.158 488.688 268.992 489.05 268.865 489.44C268.683 490.003 268.606 490.505 268.636 490.946C268.665 491.386 268.792 491.754 269.017 492.049C269.24 492.349 269.549 492.563 269.945 492.692ZM268.993 501.41L270.048 498.158L271.36 498.584L270.306 501.836C270.101 502.466 270.036 503.008 270.11 503.463C270.184 503.919 270.371 504.293 270.67 504.587C270.967 504.887 271.344 505.111 271.801 505.259C272.219 505.395 272.642 505.43 273.069 505.366C273.495 505.306 273.883 505.118 274.232 504.8C274.587 504.484 274.867 504.011 275.071 503.381L276.004 500.505L265.152 496.986L265.675 495.372L277.848 499.32L276.392 503.81C276.094 504.73 275.683 505.456 275.159 505.988C274.635 506.52 274.038 506.859 273.369 507.006C272.705 507.154 272.013 507.111 271.294 506.878C270.514 506.625 269.901 506.245 269.456 505.737C269.011 505.229 268.747 504.61 268.663 503.881C268.585 503.153 268.695 502.33 268.993 501.41ZM272.179 513.125L262.392 505.497L262.926 503.85L273.594 512.438L273.249 513.499L272.179 513.125ZM259.989 512.904L272.393 512.464L273.48 512.789L273.135 513.851L259.452 514.559L259.989 512.904ZM264.563 514.156L263.242 513.728L265.46 506.889L266.781 507.318L264.563 514.156ZM271.096 520.138L269.789 524.167C269.493 525.081 269.103 525.808 268.62 526.347C268.135 526.892 267.566 527.241 266.914 527.392C266.265 527.552 265.544 527.503 264.753 527.246C264.195 527.065 263.723 526.786 263.334 526.407C262.949 526.036 262.664 525.586 262.478 525.058C262.296 524.537 262.222 523.958 262.256 523.322L262.226 522.814L263.455 519.027L264.773 519.436L263.845 522.295C263.657 522.875 263.601 523.389 263.677 523.839C263.759 524.29 263.941 524.67 264.223 524.977C264.505 525.284 264.855 525.505 265.273 525.641C265.742 525.793 266.181 525.834 266.592 525.764C267.003 525.694 267.367 525.491 267.685 525.157C268.006 524.83 268.268 524.357 268.468 523.739L269.252 521.323L258.4 517.803L258.924 516.189L271.096 520.138ZM256.616 523.304L263.094 522.134L262.557 523.817L256.158 525.059L256.057 525.026L256.616 523.304ZM254.306 534.899L252.993 534.474L255.084 528.028L256.397 528.453L254.306 534.899ZM267.151 532.302L254.978 528.354L255.502 526.74L267.674 530.688L267.151 532.302ZM260.209 535.871L258.896 535.446L260.71 529.853L262.023 530.278L260.209 535.871ZM265.193 538.338L263.872 537.91L265.936 531.547L267.257 531.976L265.193 538.338ZM261.481 549.783L249.308 545.835L249.834 544.213L261.211 541.13L251.822 538.085L252.345 536.472L264.518 540.42L263.995 542.033L252.585 545.133L261.999 548.186L261.481 549.783ZM249.868 557.299L249.348 558.904C248.606 558.571 247.989 558.127 247.497 557.574C247.005 557.02 246.686 556.359 246.541 555.591C246.402 554.825 246.49 553.955 246.806 552.979C247.038 552.266 247.382 551.66 247.839 551.161C248.295 550.669 248.836 550.293 249.462 550.034C250.093 549.777 250.792 549.646 251.557 549.641C252.326 549.644 253.137 549.784 253.99 550.061L255.202 550.454C256.055 550.731 256.791 551.092 257.409 551.54C258.032 551.994 258.523 552.514 258.881 553.098C259.238 553.688 259.453 554.327 259.525 555.016C259.597 555.705 259.511 556.425 259.267 557.178C258.969 558.097 258.544 558.819 257.992 559.342C257.441 559.866 256.801 560.203 256.074 560.356C255.351 560.515 254.575 560.507 253.745 560.33L254.266 558.725C254.86 558.831 255.394 558.845 255.87 558.765C256.351 558.687 256.766 558.489 257.116 558.171C257.465 557.853 257.742 557.379 257.946 556.749C258.122 556.209 258.173 555.699 258.101 555.219C258.026 554.746 257.845 554.308 257.556 553.906C257.266 553.51 256.879 553.157 256.394 552.846C255.91 552.535 255.345 552.274 254.698 552.065L253.469 551.666C252.873 551.473 252.293 551.352 251.729 551.305C251.164 551.263 250.641 551.306 250.163 551.434C249.684 551.562 249.266 551.787 248.909 552.109C248.558 552.432 248.294 552.864 248.119 553.405C247.897 554.09 247.828 554.672 247.914 555.149C247.999 555.627 248.212 556.034 248.552 556.373C248.89 556.716 249.329 557.025 249.868 557.299ZM256.755 564.355L249.618 565.533L254.702 570.684L254.108 572.515L247.845 565.845L243.297 564.37L243.82 562.756L248.368 564.232L257.354 562.508L256.755 564.355Z" fill="#FF8517"/>
<path d="M454.918 274.438L457.474 286.977L455.837 287.311L453.282 274.772L454.918 274.438ZM458.948 273.617L459.226 274.977L449.537 276.952L449.26 275.591L458.948 273.617ZM460.808 273.237L464.959 272.391C465.901 272.199 466.725 272.181 467.433 272.336C468.146 272.489 468.729 272.813 469.182 273.307C469.64 273.793 469.952 274.444 470.119 275.26C470.236 275.834 470.225 276.383 470.087 276.908C469.953 277.425 469.702 277.895 469.333 278.317C468.97 278.732 468.503 279.081 467.933 279.365L467.504 279.641L463.603 280.436L463.31 279.087L466.256 278.487C466.853 278.365 467.328 278.161 467.682 277.873C468.035 277.58 468.276 277.235 468.404 276.838C468.533 276.441 468.553 276.027 468.465 275.597C468.367 275.114 468.186 274.712 467.923 274.389C467.66 274.066 467.304 273.848 466.857 273.736C466.414 273.617 465.874 273.622 465.237 273.752L462.748 274.259L465.026 285.438L463.364 285.777L460.808 273.237ZM470.693 284.283L466.486 279.22L468.215 278.859L472.446 283.818L472.467 283.921L470.693 284.283ZM476.545 271.187L474.723 283.461L473.027 283.807L475.251 270.294L476.345 270.071L476.545 271.187ZM482.354 281.906L475.865 271.326L475.612 270.22L476.706 269.997L484.059 281.559L482.354 281.906ZM481.192 277.308L481.47 278.669L474.425 280.105L474.148 278.744L481.192 277.308ZM492.828 266.711L495.384 279.25L493.713 279.591L485.429 271.206L487.4 280.878L485.738 281.216L483.182 268.677L484.845 268.338L493.159 276.744L491.183 267.047L492.828 266.711ZM504.366 274.119C504.306 273.826 504.208 273.577 504.07 273.372C503.937 273.16 503.74 272.985 503.479 272.847C503.223 272.707 502.883 272.594 502.459 272.507C502.04 272.419 501.518 272.349 500.891 272.298C500.234 272.24 499.632 272.151 499.087 272.028C498.541 271.901 498.06 271.726 497.644 271.506C497.229 271.286 496.887 271.006 496.621 270.665C496.354 270.325 496.171 269.911 496.071 269.423C495.972 268.935 495.981 268.464 496.097 268.009C496.214 267.555 496.428 267.138 496.739 266.757C497.055 266.37 497.456 266.037 497.944 265.758C498.431 265.48 498.996 265.275 499.639 265.144C500.581 264.952 501.416 264.97 502.144 265.198C502.877 265.42 503.475 265.785 503.937 266.295C504.399 266.799 504.696 267.378 504.83 268.033L503.176 268.37C503.08 267.899 502.895 267.503 502.62 267.182C502.344 266.856 501.982 266.631 501.532 266.507C501.081 266.378 500.542 266.377 499.917 266.504C499.325 266.625 498.855 266.813 498.507 267.07C498.159 267.326 497.921 267.626 497.793 267.969C497.672 268.31 497.651 268.676 497.73 269.067C497.784 269.331 497.888 269.561 498.041 269.757C498.199 269.946 498.415 270.108 498.688 270.244C498.966 270.379 499.305 270.486 499.704 270.566C500.109 270.645 500.584 270.704 501.13 270.742C501.883 270.798 502.543 270.896 503.11 271.038C503.677 271.18 504.159 271.371 504.555 271.614C504.956 271.849 505.276 272.145 505.517 272.503C505.761 272.854 505.934 273.273 506.033 273.761C506.137 274.272 506.128 274.755 506.006 275.211C505.883 275.666 505.659 276.08 505.334 276.451C505.01 276.822 504.594 277.143 504.087 277.414C503.584 277.678 503.003 277.877 502.343 278.011C501.763 278.13 501.175 278.166 500.58 278.12C499.99 278.072 499.433 277.935 498.908 277.707C498.389 277.478 497.944 277.156 497.572 276.741C497.205 276.32 496.958 275.796 496.83 275.17L498.484 274.833C498.572 275.264 498.73 275.617 498.96 275.893C499.188 276.164 499.467 276.37 499.795 276.513C500.129 276.654 500.489 276.736 500.876 276.759C501.268 276.774 501.665 276.741 502.067 276.659C502.647 276.541 503.122 276.361 503.491 276.118C503.86 275.875 504.117 275.584 504.263 275.243C504.415 274.901 504.449 274.526 504.366 274.119ZM512.423 270.656L509.073 271.339L508.798 269.986L512.148 269.304C512.797 269.171 513.301 268.961 513.661 268.672C514.02 268.384 514.255 268.037 514.364 267.632C514.478 267.226 514.487 266.788 514.392 266.317C514.304 265.886 514.127 265.501 513.86 265.16C513.599 264.819 513.244 264.574 512.795 264.427C512.345 264.273 511.796 264.263 511.147 264.395L508.185 264.999L510.463 276.177L508.801 276.516L506.245 263.977L510.87 263.034C511.817 262.841 512.652 262.841 513.373 263.035C514.094 263.229 514.683 263.581 515.14 264.092C515.596 264.597 515.899 265.22 516.05 265.961C516.214 266.765 516.184 267.485 515.962 268.123C515.739 268.76 515.33 269.295 514.737 269.727C514.142 270.153 513.371 270.463 512.423 270.656ZM521.052 262.116L519.23 274.39L517.534 274.736L519.758 261.223L520.851 261L521.052 262.116ZM526.86 272.835L520.372 262.255L520.119 261.149L521.213 260.926L528.566 272.487L526.86 272.835ZM525.699 268.237L525.976 269.598L518.932 271.033L518.654 269.673L525.699 268.237ZM527.689 259.606L531.84 258.76C532.782 258.568 533.606 258.55 534.314 258.704C535.027 258.858 535.61 259.182 536.063 259.675C536.521 260.162 536.833 260.813 536.999 261.628C537.116 262.202 537.106 262.752 536.968 263.276C536.834 263.794 536.583 264.264 536.214 264.686C535.85 265.101 535.383 265.45 534.813 265.734L534.385 266.009L530.484 266.804L530.191 265.456L533.136 264.855C533.734 264.734 534.209 264.529 534.563 264.242C534.916 263.949 535.157 263.603 535.285 263.207C535.413 262.81 535.434 262.396 535.346 261.965C535.248 261.483 535.067 261.08 534.804 260.757C534.541 260.434 534.185 260.217 533.738 260.104C533.295 259.985 532.755 259.991 532.118 260.121L529.629 260.628L531.907 271.806L530.245 272.145L527.689 259.606ZM537.574 270.651L533.367 265.589L535.096 265.227L539.327 270.186L539.348 270.29L537.574 270.651ZM548.804 266.954L549.079 268.306L542.44 269.66L542.164 268.308L548.804 266.954ZM540.22 257.052L542.775 269.591L541.113 269.93L538.558 257.391L540.22 257.052ZM546.744 261.337L547.02 262.69L541.258 263.864L540.983 262.512L546.744 261.337ZM546.438 255.785L546.715 257.146L540.161 258.481L539.884 257.121L546.438 255.785ZM558.227 253.382L560.783 265.921L559.112 266.261L550.829 257.877L552.8 267.548L551.138 267.887L548.582 255.348L550.244 255.009L558.559 263.414L556.583 253.717L558.227 253.382ZM570.486 259.79L572.139 259.453C572.215 260.263 572.132 261.019 571.892 261.719C571.653 262.42 571.234 263.022 570.637 263.527C570.039 264.025 569.238 264.377 568.233 264.582C567.498 264.732 566.801 264.73 566.142 264.578C565.489 264.424 564.896 264.138 564.362 263.72C563.827 263.297 563.37 262.754 562.989 262.09C562.613 261.419 562.336 260.644 562.157 259.766L561.902 258.517C561.723 257.639 561.676 256.82 561.761 256.061C561.85 255.296 562.06 254.613 562.393 254.013C562.73 253.412 563.181 252.91 563.745 252.508C564.309 252.106 564.979 251.827 565.754 251.669C566.701 251.475 567.538 251.49 568.265 251.713C568.992 251.935 569.601 252.326 570.092 252.883C570.587 253.434 570.961 254.114 571.216 254.924L569.562 255.261C569.363 254.691 569.111 254.219 568.807 253.845C568.503 253.464 568.126 253.2 567.677 253.052C567.229 252.905 566.68 252.897 566.031 253.029C565.474 253.143 565.005 253.349 564.623 253.648C564.248 253.946 563.956 254.319 563.748 254.768C563.547 255.216 563.43 255.727 563.397 256.302C563.365 256.877 563.417 257.497 563.552 258.163L563.81 259.429C563.935 260.043 564.116 260.607 564.353 261.121C564.595 261.634 564.889 262.067 565.236 262.421C565.584 262.775 565.985 263.028 566.441 263.18C566.895 263.327 567.401 263.343 567.958 263.23C568.664 263.086 569.204 262.859 569.577 262.55C569.951 262.241 570.201 261.855 570.328 261.392C570.461 260.929 570.513 260.395 570.486 259.79ZM573.238 250.322L577.777 255.954L579.758 248.994L581.644 248.609L578.921 257.345L579.876 262.03L578.214 262.368L577.259 257.683L571.335 250.71L573.238 250.322Z" fill="#FF8517"/>
<path d="M134.802 281.98L130.728 280.819C129.804 280.556 129.064 280.192 128.507 279.729C127.945 279.264 127.577 278.708 127.402 278.061C127.219 277.418 127.242 276.697 127.47 275.897C127.631 275.333 127.894 274.85 128.258 274.449C128.615 274.051 129.054 273.75 129.576 273.545C130.09 273.344 130.665 273.249 131.302 273.26L131.809 273.213L135.638 274.304L135.277 275.636L132.386 274.812C131.8 274.645 131.283 274.607 130.837 274.699C130.389 274.797 130.016 274.992 129.719 275.286C129.422 275.579 129.214 275.937 129.093 276.359C128.958 276.833 128.933 277.273 129.018 277.681C129.103 278.089 129.318 278.446 129.663 278.752C130.002 279.061 130.483 279.305 131.109 279.484L133.552 280.18L136.679 269.209L138.31 269.674L134.802 281.98ZM131.117 267.623L132.519 274.055L130.818 273.579L129.347 267.229L129.376 267.127L131.117 267.623ZM119.447 265.732L119.825 264.405L126.342 266.262L125.963 267.589L119.447 265.732ZM122.504 278.475L126.012 266.168L127.643 266.633L124.135 278.94L122.504 278.475ZM118.687 271.666L119.066 270.339L124.72 271.951L124.342 273.278L118.687 271.666ZM116.402 276.735L116.782 275.4L123.214 277.233L122.834 278.569L116.402 276.735ZM110.359 265.07C110.277 265.357 110.25 265.623 110.278 265.869C110.298 266.118 110.392 266.365 110.561 266.607C110.723 266.849 110.973 267.106 111.309 267.378C111.64 267.65 112.072 267.952 112.604 268.287C113.161 268.641 113.654 268.997 114.081 269.357C114.507 269.722 114.854 270.098 115.122 270.485C115.389 270.872 115.563 271.278 115.643 271.703C115.723 272.128 115.694 272.58 115.558 273.058C115.421 273.537 115.197 273.952 114.884 274.301C114.571 274.651 114.189 274.923 113.737 275.117C113.279 275.315 112.769 275.426 112.208 275.449C111.647 275.471 111.051 275.393 110.42 275.213C109.496 274.95 108.763 274.549 108.222 274.011C107.673 273.477 107.311 272.877 107.135 272.211C106.958 271.551 106.961 270.9 107.144 270.258L108.767 270.721C108.635 271.183 108.617 271.619 108.713 272.03C108.808 272.447 109.026 272.814 109.368 273.131C109.709 273.454 110.186 273.702 110.8 273.878C111.381 274.043 111.885 274.092 112.312 274.025C112.739 273.958 113.089 273.802 113.36 273.556C113.625 273.309 113.812 272.994 113.922 272.61C113.996 272.351 114.009 272.099 113.963 271.855C113.91 271.614 113.794 271.371 113.614 271.124C113.429 270.877 113.178 270.625 112.86 270.37C112.537 270.114 112.142 269.843 111.675 269.557C111.033 269.161 110.493 268.769 110.055 268.382C109.616 267.996 109.277 267.603 109.037 267.206C108.79 266.813 108.642 266.402 108.593 265.974C108.538 265.55 108.578 265.098 108.715 264.619C108.858 264.118 109.088 263.693 109.407 263.345C109.725 262.997 110.114 262.733 110.574 262.553C111.033 262.374 111.55 262.28 112.125 262.274C112.692 262.271 113.3 262.362 113.948 262.547C114.517 262.709 115.055 262.947 115.563 263.263C116.064 263.576 116.495 263.955 116.856 264.399C117.211 264.842 117.458 265.332 117.597 265.872C117.729 266.415 117.707 266.993 117.532 267.608L115.909 267.145C116.03 266.722 116.051 266.336 115.975 265.985C115.896 265.64 115.745 265.328 115.519 265.051C115.288 264.772 115.006 264.533 114.672 264.334C114.332 264.14 113.964 263.986 113.57 263.874C113.001 263.711 112.496 263.653 112.057 263.698C111.618 263.744 111.255 263.884 110.968 264.119C110.676 264.353 110.473 264.669 110.359 265.07ZM101.612 264.431L104.9 265.369L104.522 266.696L101.234 265.759C100.597 265.577 100.053 265.531 99.6003 265.622C99.148 265.712 98.7803 265.912 98.4972 266.221C98.2085 266.529 97.9982 266.914 97.8665 267.376C97.7461 267.799 97.7258 268.222 97.8058 268.647C97.8801 269.071 98.0823 269.451 98.4125 269.789C98.7411 270.132 99.2238 270.395 99.8605 270.576L102.768 271.405L105.895 260.434L107.527 260.899L104.019 273.206L99.4798 271.912C98.5501 271.647 97.8098 271.262 97.259 270.758C96.7081 270.254 96.3476 269.669 96.1774 269.006C96.0055 268.347 96.0232 267.655 96.2304 266.928C96.4553 266.139 96.8135 265.513 97.3049 265.05C97.7964 264.587 98.4051 264.3 99.131 264.19C99.8553 264.086 100.682 264.166 101.612 264.431ZM88.4095 256.885L88.7878 255.558L95.3046 257.415L94.9263 258.742L88.4095 256.885ZM91.467 269.628L94.9749 257.321L96.6063 257.786L93.0983 270.093L91.467 269.628ZM87.6502 262.819L88.0285 261.492L93.6831 263.104L93.3049 264.431L87.6502 262.819ZM85.3644 267.888L85.745 266.553L92.1773 268.386L91.7966 269.722L85.3644 267.888ZM78.2225 256.777L76.5997 256.315C76.9058 255.561 77.3268 254.929 77.8625 254.417C78.3982 253.906 79.0471 253.564 79.8092 253.391C80.5697 253.224 81.443 253.281 82.4291 253.562C83.1504 253.768 83.7683 254.09 84.2828 254.529C84.7918 254.967 85.1869 255.494 85.4681 256.11C85.7478 256.732 85.9036 257.425 85.9354 258.19C85.9601 258.959 85.8495 259.774 85.6037 260.636L85.2544 261.862C85.0086 262.724 84.6735 263.472 84.2489 264.107C83.8171 264.745 83.3156 265.254 82.7444 265.634C82.1676 266.011 81.5363 266.249 80.8506 266.346C80.165 266.443 79.4418 266.383 78.681 266.166C77.7513 265.901 77.015 265.502 76.4722 264.97C75.9294 264.437 75.5689 263.811 75.3905 263.09C75.205 262.373 75.1856 261.596 75.3324 260.761L76.9552 261.223C76.8703 261.821 76.8762 262.355 76.9731 262.828C77.0684 263.306 77.2811 263.714 77.6113 264.052C77.9415 264.389 78.425 264.649 79.0617 264.831C79.6083 264.986 80.1198 265.019 80.5962 264.93C81.067 264.839 81.4979 264.642 81.8888 264.339C82.2742 264.034 82.6136 263.634 82.907 263.139C83.2005 262.644 83.4404 262.07 83.6267 261.416L83.9809 260.173C84.1528 259.571 84.2522 258.987 84.2792 258.422C84.3006 257.855 84.2387 257.335 84.0935 256.861C83.9484 256.387 83.7087 255.977 83.3744 255.632C83.0386 255.293 82.5974 255.045 82.0508 254.889C81.3577 254.692 80.7742 254.644 80.3002 254.747C79.8262 254.849 79.4263 255.076 79.1006 255.428C78.7692 255.779 78.4765 256.228 78.2225 256.777ZM67.6904 262.85L71.1984 250.544L72.8043 251.001L69.2964 263.308L67.6904 262.85ZM63.7347 261.723L64.1154 260.387L73.6243 263.098L73.2436 264.433L63.7347 261.723Z" fill="white"/>
<path d="M371.745 495.695L372.591 499.846C372.783 500.788 372.802 501.612 372.647 502.32C372.493 503.033 372.169 503.616 371.676 504.069C371.189 504.527 370.538 504.839 369.723 505.005C369.149 505.122 368.599 505.112 368.075 504.974C367.557 504.84 367.088 504.589 366.666 504.22C366.251 503.856 365.901 503.389 365.618 502.819L365.342 502.391L364.547 498.49L365.895 498.197L366.496 501.142C366.617 501.739 366.822 502.215 367.109 502.569C367.403 502.922 367.748 503.163 368.145 503.291C368.541 503.419 368.955 503.44 369.386 503.352C369.868 503.254 370.271 503.073 370.594 502.81C370.917 502.546 371.135 502.191 371.247 501.744C371.366 501.301 371.36 500.761 371.23 500.124L370.723 497.635L359.545 499.913L359.206 498.251L371.745 495.695ZM360.7 505.58L365.762 501.373L366.124 503.102L361.165 507.333L361.061 507.354L360.7 505.58ZM364.397 516.81L363.045 517.085L361.691 510.445L363.044 510.17L364.397 516.81ZM374.299 508.226L361.76 510.781L361.421 509.119L373.96 506.564L374.299 508.226ZM370.014 514.75L368.662 515.026L367.487 509.264L368.839 508.989L370.014 514.75ZM375.566 514.444L374.206 514.721L372.87 508.167L374.231 507.89L375.566 514.444ZM367.996 525.181C368.288 525.121 368.537 525.022 368.743 524.885C368.955 524.752 369.13 524.555 369.268 524.293C369.407 524.038 369.52 523.698 369.607 523.273C369.695 522.855 369.765 522.332 369.817 521.706C369.874 521.048 369.964 520.447 370.086 519.902C370.214 519.356 370.388 518.875 370.608 518.459C370.828 518.043 371.109 517.702 371.449 517.435C371.789 517.169 372.204 516.986 372.692 516.886C373.18 516.787 373.651 516.795 374.105 516.912C374.559 517.029 374.977 517.243 375.357 517.554C375.744 517.87 376.077 518.271 376.356 518.759C376.635 519.246 376.84 519.811 376.971 520.454C377.163 521.396 377.144 522.231 376.916 522.959C376.695 523.692 376.329 524.289 375.82 524.752C375.316 525.214 374.736 525.511 374.082 525.644L373.745 523.991C374.216 523.895 374.611 523.71 374.932 523.435C375.259 523.159 375.484 522.796 375.607 522.347C375.737 521.896 375.738 521.357 375.61 520.731C375.489 520.14 375.301 519.67 375.045 519.322C374.788 518.973 374.489 518.735 374.146 518.608C373.804 518.486 373.438 518.465 373.048 518.545C372.783 518.599 372.553 518.702 372.357 518.856C372.168 519.014 372.006 519.23 371.87 519.502C371.736 519.781 371.628 520.12 371.548 520.519C371.469 520.924 371.411 521.399 371.372 521.945C371.317 522.698 371.218 523.358 371.076 523.925C370.935 524.492 370.743 524.973 370.501 525.37C370.266 525.77 369.969 526.091 369.611 526.331C369.261 526.576 368.841 526.748 368.353 526.848C367.842 526.952 367.359 526.943 366.904 526.82C366.448 526.698 366.035 526.474 365.664 526.149C365.292 525.824 364.971 525.408 364.701 524.901C364.437 524.399 364.238 523.818 364.103 523.157C363.985 522.578 363.949 521.99 363.995 521.395C364.042 520.805 364.18 520.248 364.408 519.723C364.637 519.204 364.958 518.758 365.373 518.387C365.795 518.02 366.318 517.773 366.944 517.645L367.281 519.299C366.85 519.386 366.497 519.545 366.221 519.775C365.951 520.003 365.744 520.282 365.602 520.61C365.461 520.943 365.379 521.304 365.356 521.691C365.34 522.083 365.373 522.48 365.455 522.882C365.573 523.462 365.754 523.936 365.996 524.305C366.239 524.675 366.531 524.932 366.871 525.078C367.213 525.229 367.588 525.264 367.996 525.181ZM371.459 533.238L370.776 529.888L372.128 529.613L372.811 532.963C372.943 533.611 373.153 534.116 373.442 534.475C373.731 534.835 374.077 535.07 374.482 535.178C374.888 535.293 375.327 535.302 375.798 535.206C376.228 535.119 376.614 534.941 376.954 534.675C377.295 534.414 377.54 534.059 377.688 533.61C377.841 533.16 377.852 532.611 377.72 531.962L377.116 529L365.937 531.278L365.599 529.616L378.138 527.06L379.08 531.685C379.273 532.632 379.273 533.466 379.079 534.188C378.885 534.909 378.533 535.498 378.022 535.955C377.517 536.411 376.894 536.714 376.154 536.865C375.35 537.029 374.629 536.999 373.992 536.776C373.354 536.553 372.82 536.145 372.388 535.551C371.961 534.957 371.652 534.186 371.459 533.238ZM370.842 548.433L369.49 548.709L368.137 542.069L369.489 541.793L370.842 548.433ZM380.744 539.849L368.205 542.405L367.866 540.743L380.406 538.187L380.744 539.849ZM376.459 546.373L375.107 546.649L373.933 540.887L375.285 540.612L376.459 546.373ZM382.012 546.067L380.651 546.344L379.315 539.79L380.676 539.513L382.012 546.067ZM375.44 557.524L375.777 559.178C374.967 559.253 374.212 559.171 373.511 558.931C372.81 558.691 372.208 558.273 371.703 557.676C371.205 557.078 370.853 556.276 370.648 555.272C370.499 554.537 370.5 553.84 370.653 553.181C370.807 552.528 371.092 551.934 371.51 551.401C371.933 550.866 372.477 550.408 373.141 550.028C373.811 549.652 374.586 549.374 375.464 549.195L376.713 548.941C377.592 548.762 378.41 548.714 379.169 548.799C379.935 548.888 380.617 549.099 381.217 549.431C381.818 549.769 382.32 550.22 382.722 550.784C383.124 551.348 383.404 552.017 383.562 552.792C383.755 553.739 383.74 554.577 383.518 555.304C383.295 556.031 382.905 556.64 382.347 557.13C381.796 557.625 381.116 558 380.307 558.254L379.97 556.601C380.539 556.401 381.011 556.15 381.386 555.846C381.766 555.541 382.03 555.164 382.178 554.716C382.326 554.267 382.333 553.718 382.201 553.07C382.088 552.513 381.881 552.043 381.582 551.662C381.284 551.286 380.911 550.994 380.462 550.787C380.014 550.585 379.503 550.468 378.928 550.436C378.354 550.403 377.733 550.455 377.067 550.591L375.801 550.849C375.187 550.974 374.623 551.155 374.109 551.391C373.596 551.633 373.163 551.928 372.809 552.275C372.455 552.622 372.202 553.023 372.05 553.479C371.903 553.933 371.887 554.439 372 554.996C372.144 555.702 372.371 556.242 372.68 556.616C372.99 556.989 373.376 557.239 373.838 557.366C374.302 557.499 374.835 557.552 375.44 557.524ZM385.682 564.075L373.143 566.63L372.809 564.994L385.348 562.438L385.682 564.075ZM386.503 568.105L385.143 568.382L383.168 558.694L384.529 558.416L386.503 568.105Z" fill="white"/>
<path d="M450.772 179.144L454.084 176.503C454.835 175.904 455.561 175.513 456.261 175.329C456.966 175.141 457.633 175.164 458.261 175.398C458.89 175.623 459.464 176.061 459.983 176.711C460.348 177.169 460.589 177.664 460.704 178.194C460.82 178.715 460.81 179.248 460.674 179.791C460.539 180.326 460.282 180.85 459.903 181.362L459.647 181.802L456.534 184.284L455.66 183.216L458.01 181.342C458.487 180.962 458.817 180.564 459.002 180.147C459.183 179.725 459.24 179.309 459.174 178.897C459.108 178.485 458.938 178.107 458.664 177.763C458.357 177.379 458.013 177.102 457.631 176.934C457.25 176.766 456.835 176.734 456.385 176.837C455.937 176.933 455.458 177.183 454.95 177.589L452.964 179.172L460.076 188.092L458.75 189.15L450.772 179.144ZM464.598 184.486L458.549 181.891L459.924 180.782L465.948 183.275L466.013 183.357L464.598 184.486ZM472.918 176.087L473.778 177.165L468.48 181.39L467.62 180.311L472.918 176.087ZM460.77 171.171L468.748 181.177L467.422 182.234L459.444 172.229L460.77 171.171ZM468.529 172.021L469.39 173.1L464.793 176.766L463.932 175.687L468.529 172.021ZM465.731 167.215L466.597 168.301L461.368 172.471L460.502 171.385L465.731 167.215ZM478.737 169.075C478.55 168.841 478.349 168.664 478.134 168.544C477.919 168.415 477.664 168.349 477.368 168.345C477.077 168.337 476.723 168.391 476.305 168.507C475.892 168.619 475.395 168.794 474.814 169.033C474.202 169.281 473.626 169.474 473.085 169.613C472.54 169.748 472.033 169.812 471.562 169.805C471.092 169.797 470.661 169.703 470.268 169.521C469.876 169.339 469.525 169.054 469.214 168.664C468.904 168.275 468.697 167.851 468.594 167.394C468.492 166.936 468.492 166.467 468.596 165.987C468.702 165.498 468.908 165.019 469.215 164.549C469.522 164.079 469.933 163.64 470.446 163.231C471.197 162.632 471.949 162.268 472.701 162.14C473.455 162.004 474.153 162.058 474.797 162.301C475.437 162.54 475.965 162.921 476.382 163.443L475.063 164.495C474.763 164.12 474.418 163.851 474.027 163.691C473.633 163.525 473.208 163.49 472.751 163.584C472.291 163.674 471.811 163.918 471.311 164.316C470.84 164.693 470.507 165.074 470.313 165.461C470.119 165.848 470.044 166.223 470.086 166.586C470.133 166.946 470.281 167.282 470.529 167.593C470.697 167.804 470.894 167.962 471.12 168.066C471.347 168.163 471.613 168.209 471.918 168.206C472.227 168.199 472.577 168.141 472.969 168.031C473.366 167.917 473.816 167.753 474.319 167.539C475.015 167.246 475.648 167.034 476.217 166.902C476.787 166.77 477.303 166.722 477.766 166.758C478.23 166.785 478.65 166.903 479.027 167.112C479.404 167.313 479.748 167.608 480.059 167.998C480.384 168.406 480.596 168.84 480.694 169.301C480.792 169.763 480.781 170.233 480.66 170.711C480.539 171.189 480.315 171.665 479.986 172.136C479.659 172.6 479.232 173.041 478.705 173.462C478.242 173.83 477.735 174.13 477.184 174.36C476.638 174.586 476.079 174.717 475.508 174.752C474.941 174.784 474.398 174.7 473.879 174.5C473.36 174.291 472.902 173.937 472.504 173.438L473.823 172.386C474.097 172.73 474.399 172.972 474.729 173.113C475.056 173.25 475.397 173.308 475.754 173.285C476.116 173.259 476.474 173.168 476.829 173.012C477.186 172.848 477.524 172.638 477.845 172.383C478.308 172.014 478.648 171.637 478.866 171.253C479.085 170.869 479.182 170.492 479.156 170.123C479.136 169.749 478.996 169.4 478.737 169.075ZM484.338 162.326L481.665 164.458L480.805 163.379L483.478 161.247C483.995 160.834 484.349 160.418 484.538 159.997C484.727 159.576 484.778 159.161 484.691 158.751C484.608 158.337 484.417 157.942 484.118 157.567C483.844 157.223 483.51 156.961 483.118 156.779C482.73 156.593 482.303 156.537 481.836 156.609C481.366 156.677 480.872 156.917 480.354 157.33L477.99 159.215L485.103 168.135L483.777 169.192L475.798 159.187L479.488 156.245C480.244 155.642 480.988 155.263 481.718 155.107C482.448 154.952 483.133 154.998 483.773 155.245C484.408 155.488 484.962 155.904 485.433 156.495C485.944 157.137 486.246 157.792 486.337 158.461C486.428 159.13 486.308 159.792 485.976 160.447C485.64 161.097 485.094 161.723 484.338 162.326ZM498.151 155.965L499.011 157.044L493.713 161.269L492.853 160.19L498.151 155.965ZM486.003 151.05L493.981 161.055L492.655 162.113L484.677 152.107L486.003 151.05ZM493.762 151.899L494.623 152.978L490.025 156.644L489.165 155.565L493.762 151.899ZM490.964 147.093L491.83 148.179L486.601 152.349L485.735 151.263L490.964 147.093ZM504.157 147.736L505.476 146.684C505.912 147.371 506.182 148.081 506.287 148.814C506.392 149.547 506.293 150.274 505.991 150.995C505.685 151.711 505.131 152.388 504.33 153.028C503.743 153.495 503.122 153.811 502.466 153.975C501.814 154.135 501.155 154.15 500.49 154.021C499.822 153.887 499.167 153.611 498.526 153.193C497.886 152.766 497.287 152.203 496.728 151.502L495.933 150.505C495.374 149.804 494.96 149.097 494.69 148.383C494.421 147.66 494.298 146.956 494.322 146.271C494.349 145.582 494.523 144.93 494.842 144.316C495.161 143.701 495.63 143.148 496.249 142.654C497.005 142.052 497.757 141.684 498.506 141.552C499.255 141.419 499.974 141.49 500.665 141.764C501.356 142.029 501.999 142.464 502.594 143.069L501.274 144.121C500.838 143.705 500.399 143.399 499.958 143.204C499.514 143.004 499.058 142.94 498.591 143.012C498.125 143.085 497.632 143.327 497.115 143.74C496.67 144.094 496.346 144.492 496.142 144.931C495.943 145.368 495.853 145.833 495.873 146.327C495.896 146.817 496.025 147.326 496.257 147.853C496.49 148.379 496.818 148.908 497.242 149.439L498.047 150.45C498.438 150.94 498.856 151.36 499.3 151.71C499.748 152.057 500.208 152.309 500.678 152.466C501.148 152.623 501.621 152.666 502.096 152.595C502.567 152.518 503.025 152.303 503.469 151.949C504.033 151.499 504.411 151.052 504.603 150.607C504.794 150.161 504.842 149.704 504.745 149.234C504.652 148.761 504.456 148.262 504.157 147.736ZM505.333 135.635L513.311 145.641L512.006 146.682L504.027 136.676L505.333 135.635ZM508.549 133.071L509.415 134.157L501.684 140.321L500.818 139.236L508.549 133.071Z" fill="white"/>
<path d="M151.314 376.518L148.758 363.979L150.42 363.64L152.976 376.179L151.314 376.518ZM138.645 379.1L136.09 366.561L137.76 366.22L146.044 374.605L144.073 364.934L145.735 364.595L148.291 377.134L146.629 377.473L138.314 369.068L140.29 378.765L138.645 379.1ZM131.325 380.592L128.769 368.053L130.406 367.719L132.961 380.259L131.325 380.592ZM127.295 381.414L127.017 380.053L136.706 378.078L136.983 379.439L127.295 381.414ZM115.188 372.229L114.913 370.877L121.553 369.524L121.828 370.876L115.188 372.229ZM123.772 382.131L121.217 369.592L122.879 369.254L125.435 381.793L123.772 382.131ZM117.248 377.846L116.972 376.494L122.734 375.32L123.009 376.672L117.248 377.846ZM117.555 383.399L117.277 382.038L123.831 380.702L124.108 382.063L117.555 383.399ZM104.861 379.429L103.925 374.839C104.033 374.578 104.227 374.269 104.508 373.913C104.789 373.562 105.207 373.22 105.76 372.886C106.31 372.559 107.052 372.3 107.988 372.109C108.752 371.954 109.482 371.942 110.179 372.075C110.871 372.215 111.505 372.493 112.08 372.908C112.65 373.33 113.139 373.882 113.547 374.564C113.951 375.253 114.248 376.066 114.439 377.001L114.637 377.975C114.828 378.91 114.889 379.768 114.821 380.547C114.747 381.328 114.546 382.018 114.22 382.616C113.894 383.221 113.446 383.719 112.874 384.111C112.303 384.508 111.613 384.789 110.803 384.954C109.845 385.15 109.01 385.146 108.299 384.944C107.583 384.749 106.986 384.399 106.506 383.893C106.02 383.388 105.65 382.775 105.396 382.056L107.058 381.717C107.225 382.155 107.459 382.538 107.759 382.866C108.053 383.195 108.427 383.429 108.88 383.57C109.334 383.717 109.883 383.724 110.526 383.593C111.106 383.475 111.587 383.267 111.968 382.968C112.35 382.669 112.638 382.293 112.833 381.841C113.028 381.388 113.137 380.867 113.16 380.276C113.177 379.686 113.114 379.039 112.97 378.332L112.768 377.342C112.621 376.619 112.406 375.99 112.123 375.455C111.835 374.922 111.492 374.486 111.095 374.149C110.698 373.817 110.261 373.592 109.782 373.475C109.298 373.358 108.789 373.354 108.255 373.463C107.664 373.584 107.194 373.73 106.847 373.903C106.5 374.081 106.238 374.26 106.059 374.44C105.882 374.625 105.751 374.793 105.668 374.941L106.24 377.749L109.142 377.157L109.416 378.501L104.861 379.429ZM103.388 386.286L99.2368 387.132C98.2952 387.324 97.4708 387.343 96.7635 387.188C96.0505 387.034 95.4673 386.71 95.0138 386.217C94.5559 385.73 94.2438 385.079 94.0776 384.264C93.9606 383.69 93.9712 383.14 94.1095 382.616C94.2432 382.098 94.4943 381.629 94.8627 381.207C95.2266 380.792 95.6936 380.442 96.2637 380.159L96.6919 379.883L100.593 379.088L100.886 380.436L97.9406 381.037C97.3435 381.158 96.868 381.363 96.5139 381.65C96.1611 381.944 95.9205 382.289 95.7921 382.686C95.6637 383.083 95.6434 383.496 95.7311 383.927C95.8294 384.409 96.0102 384.812 96.2733 385.135C96.5365 385.458 96.8918 385.676 97.3392 385.788C97.7821 385.907 98.3222 385.901 98.9595 385.771L101.448 385.264L99.17 374.086L100.832 373.747L103.388 386.286ZM93.5033 375.241L97.7104 380.303L95.9812 380.665L91.7503 375.706L91.7292 375.602L93.5033 375.241ZM90.7367 388.865L88.1811 376.326L89.8432 375.987L92.3989 388.526L90.7367 388.865ZM83.339 390.372L80.7834 377.833L82.4196 377.5L84.9753 390.039L83.339 390.372ZM79.3086 391.194L79.0313 389.833L88.7198 387.858L88.9971 389.219L79.3086 391.194ZM76.7336 391.719L72.1952 386.087L70.2143 393.047L68.3283 393.432L71.0507 384.697L70.0959 380.012L71.758 379.673L72.7128 384.358L78.6369 391.331L76.7336 391.719Z" fill="#FF8517"/>
<path d="M447.662 437.671L438.173 446.257L437.035 444.999L446.524 436.413L447.662 437.671ZM456.337 447.258L446.848 455.844L445.704 454.579L448.7 443.18L441.381 449.802L440.243 448.544L449.732 439.958L450.87 441.216L447.872 452.653L455.21 446.013L456.337 447.258ZM461.349 452.797L451.86 461.383L450.74 460.145L460.229 451.559L461.349 452.797ZM464.109 455.847L463.079 456.779L456.445 449.447L457.475 448.515L464.109 455.847ZM462.371 470.943L461.348 471.869L456.802 466.845L457.825 465.919L462.371 470.943ZM466.521 458.513L457.032 467.099L455.894 465.841L465.383 457.255L466.521 458.513ZM466.156 466.31L465.133 467.236L461.188 462.876L462.211 461.95L466.156 466.31ZM470.778 463.218L469.749 464.15L465.261 459.19L466.291 458.259L470.778 463.218ZM473.828 476.164L470.354 479.307C470.074 479.347 469.71 479.337 469.26 479.277C468.816 479.214 468.308 479.029 467.739 478.722C467.177 478.416 466.576 477.909 465.935 477.201C465.413 476.623 465.031 476 464.791 475.333C464.558 474.666 464.474 473.979 464.539 473.273C464.611 472.567 464.837 471.865 465.216 471.167C465.604 470.468 466.152 469.799 466.86 469.158L467.596 468.491C468.305 467.851 469.012 467.361 469.717 467.023C470.426 466.689 471.122 466.51 471.804 466.486C472.489 466.458 473.147 466.591 473.775 466.884C474.408 467.172 475.001 467.623 475.555 468.236C476.212 468.961 476.634 469.681 476.823 470.396C477.019 471.111 477.022 471.804 476.831 472.475C476.644 473.15 476.305 473.78 475.815 474.366L474.677 473.108C474.969 472.741 475.18 472.345 475.309 471.92C475.442 471.499 475.454 471.058 475.344 470.596C475.239 470.13 474.966 469.654 474.526 469.167C474.129 468.729 473.704 468.421 473.253 468.245C472.801 468.069 472.331 468.012 471.842 468.075C471.354 468.138 470.85 468.31 470.329 468.591C469.813 468.876 469.288 469.26 468.753 469.744L468.004 470.422C467.457 470.918 467.025 471.423 466.709 471.938C466.396 472.458 466.196 472.974 466.109 473.489C466.025 473.999 466.054 474.49 466.197 474.961C466.343 475.438 466.599 475.878 466.965 476.282C467.37 476.729 467.735 477.059 468.06 477.27C468.39 477.477 468.678 477.612 468.924 477.674C469.174 477.732 469.384 477.759 469.554 477.755L471.679 475.833L469.692 473.636L470.708 472.717L473.828 476.164ZM480.479 473.939L483.321 477.08C483.966 477.793 484.402 478.493 484.629 479.18C484.86 479.872 484.878 480.539 484.684 481.18C484.499 481.822 484.098 482.423 483.481 482.981C483.046 483.374 482.568 483.645 482.046 483.793C481.533 483.941 481 483.965 480.45 483.862C479.907 483.761 479.369 483.537 478.834 483.191L478.379 482.962L475.708 480.01L476.719 479.071L478.736 481.3C479.145 481.752 479.563 482.057 479.991 482.215C480.423 482.37 480.842 482.401 481.249 482.309C481.656 482.218 482.023 482.024 482.348 481.73C482.713 481.399 482.968 481.039 483.112 480.648C483.256 480.257 483.262 479.84 483.131 479.398C483.008 478.956 482.728 478.494 482.291 478.012L480.587 476.128L472.128 483.783L470.99 482.525L480.479 473.939ZM476.008 488.071L478.222 481.872L479.414 483.176L477.301 489.343L477.223 489.414L476.008 488.071ZM489.141 483.513L479.652 492.099L478.514 490.841L488.003 482.255L489.141 483.513ZM494.207 489.111L484.718 497.697L483.598 496.459L493.087 487.873L494.207 489.111ZM496.967 492.161L495.937 493.093L489.303 485.761L490.333 484.829L496.967 492.161ZM498.73 494.109L496.195 500.884L503.194 499.043L504.485 500.47L495.581 502.577L492.036 505.785L490.898 504.527L494.443 501.319L497.427 492.669L498.73 494.109Z" fill="#FF8517"/>
<path d="M354.858 143.642L367.288 146.681L366.885 148.329L354.455 145.289L354.858 143.642ZM357.928 131.083L370.359 134.122L369.954 135.779L358.836 139.692L368.424 142.037L368.021 143.684L355.59 140.645L355.993 138.997L367.143 135.064L357.53 132.714L357.928 131.083ZM359.703 123.826L372.133 126.866L371.737 128.488L359.306 125.448L359.703 123.826ZM360.68 119.83L362.029 120.16L359.68 129.765L358.331 129.435L360.68 119.83ZM374.152 112.801L375.492 113.129L373.883 119.711L372.542 119.383L374.152 112.801ZM361.533 116.339L373.964 119.378L373.561 121.026L361.131 117.986L361.533 116.339ZM368.193 112.267L369.534 112.595L368.137 118.306L366.797 117.978L368.193 112.267ZM363.041 110.175L364.39 110.504L362.801 117.001L361.452 116.672L363.041 110.175ZM372.048 100.388L376.598 101.501C376.788 101.71 376.985 102.018 377.187 102.423C377.384 102.827 377.515 103.351 377.581 103.994C377.643 104.631 377.56 105.413 377.333 106.34C377.148 107.097 376.847 107.763 376.429 108.336C376.007 108.902 375.486 109.357 374.865 109.7C374.24 110.036 373.532 110.242 372.741 110.32C371.945 110.391 371.084 110.313 370.156 110.087L369.191 109.851C368.263 109.624 367.462 109.313 366.786 108.919C366.112 108.519 365.573 108.043 365.171 107.492C364.763 106.94 364.504 106.322 364.394 105.638C364.278 104.952 364.319 104.208 364.515 103.405C364.747 102.455 365.107 101.701 365.593 101.144C366.074 100.58 366.646 100.19 367.309 99.9715C367.973 99.7478 368.684 99.6745 369.444 99.7516L369.041 101.399C368.573 101.363 368.127 101.411 367.703 101.543C367.28 101.668 366.908 101.906 366.587 102.256C366.261 102.605 366.02 103.098 365.864 103.735C365.723 104.31 365.707 104.834 365.814 105.306C365.922 105.779 366.139 106.2 366.465 106.569C366.791 106.938 367.216 107.26 367.74 107.532C368.266 107.8 368.879 108.019 369.579 108.19L370.561 108.43C371.278 108.606 371.938 108.68 372.542 108.652C373.148 108.619 373.688 108.495 374.163 108.279C374.632 108.062 375.022 107.763 375.332 107.38C375.645 106.992 375.865 106.533 375.995 106.004C376.138 105.418 376.206 104.931 376.198 104.543C376.185 104.153 376.135 103.84 376.048 103.601C375.956 103.362 375.861 103.172 375.762 103.034L372.979 102.353L372.275 105.23L370.943 104.905L372.048 100.388ZM366.475 96.1302L367.481 92.0151C367.709 91.0817 368.044 90.3282 368.486 89.7546C368.929 89.1753 369.471 88.786 370.111 88.5866C370.746 88.3801 371.468 88.3756 372.276 88.5732C372.846 88.7124 373.338 88.9564 373.753 89.3053C374.164 89.6471 374.482 90.0746 374.706 90.5879C374.926 91.0941 375.043 91.6655 375.056 92.3021L375.123 92.807L374.177 96.6745L372.833 96.3638L373.547 93.444C373.691 92.852 373.709 92.3347 373.6 91.8918C373.486 91.4476 373.276 91.0828 372.972 90.7973C372.668 90.5118 372.303 90.3168 371.876 90.2125C371.398 90.0956 370.956 90.0872 370.552 90.1873C370.147 90.2875 369.799 90.5159 369.506 90.8727C369.21 91.2224 368.984 91.7132 368.83 92.345L368.227 94.8123L379.308 97.522L378.905 99.1697L366.475 96.1302ZM380.682 91.9043L374.308 93.5488L374.719 91.8306L381.009 90.1205L381.112 90.1455L380.682 91.9043ZM369.541 83.5886L381.972 86.628L381.569 88.2758L369.138 85.2363L369.541 83.5886ZM371.335 76.2548L383.765 79.2943L383.369 80.9164L370.938 77.877L371.335 76.2548ZM372.311 72.2592L373.66 72.5891L371.312 82.1938L369.963 81.864L372.311 72.2592ZM372.936 69.7065L379.966 68.0053L374.516 63.2436L374.973 61.3739L381.711 67.5636L386.356 68.6992L385.953 70.3469L381.309 69.2113L372.474 71.5933L372.936 69.7065Z" fill="#FF8517"/>
<defs>
<linearGradient id="paint0_linear_2059_2494" x1="321.99" y1="15.44" x2="321.99" y2="651.9" gradientUnits="userSpaceOnUse">
<stop offset="0.12" stop-color="#FBEBA0"/>
<stop offset="0.49" stop-color="#FAD769"/>
<stop offset="0.52" stop-color="#F8D367"/>
<stop offset="0.53" stop-color="#F2C961"/>
<stop offset="0.55" stop-color="#E8B856"/>
<stop offset="0.56" stop-color="#DAA148"/>
<stop offset="0.58" stop-color="#BF712C"/>
<stop offset="1" stop-color="#FBE075"/>
</linearGradient>
<linearGradient id="paint1_linear_2059_2494" x1="321.99" y1="29.1303" x2="321.99" y2="623.36" gradientUnits="userSpaceOnUse">
<stop offset="0.12" stop-color="#FBEBA0"/>
<stop offset="0.49" stop-color="#FAD769"/>
<stop offset="0.52" stop-color="#F8D367"/>
<stop offset="0.53" stop-color="#F2C961"/>
<stop offset="0.55" stop-color="#E8B856"/>
<stop offset="0.56" stop-color="#DAA148"/>
<stop offset="0.58" stop-color="#BF712C"/>
<stop offset="1" stop-color="#FBE075"/>
</linearGradient>
<linearGradient id="paint2_linear_2059_2494" x1="374.825" y1="187.855" x2="201.599" y2="220.431" gradientUnits="userSpaceOnUse">
<stop stop-color="#D7BA85"/>
<stop offset="0.2" stop-color="#FDC49C"/>
<stop offset="0.43" stop-color="#BD8E37"/>
<stop offset="0.68" stop-color="#FFFFD1"/>
<stop offset="1" stop-color="#FC9C57"/>
</linearGradient>
</defs>
</svg>
