<svg width="280" height="479" viewBox="0 0 280 479" fill="none" xmlns="http://www.w3.org/2000/svg">
<g filter="url(#filter0_bd_2023_1388)">
<path d="M252.028 6.66992H38.4879C36.3672 6.66992 34.6479 8.38915 34.6479 10.5099V308.8C34.6479 310.921 36.3672 312.64 38.4879 312.64H252.028C254.149 312.64 255.868 310.921 255.868 308.8V10.5099C255.868 8.38915 254.149 6.66992 252.028 6.66992Z" fill="white"/>
</g>
<path d="M199.328 99.9399C199.328 109.4 196.888 118.31 192.598 126.06C183.398 142.72 165.648 154.01 145.258 154.01C124.868 154.01 107.138 142.73 97.918 126.09C93.628 118.34 91.188 109.43 91.188 99.9399C91.188 70.0699 115.418 45.8699 145.258 45.8699C175.098 45.8699 199.328 70.0699 199.328 99.9399Z" fill="#E5E7FD"/>
<path d="M192.598 126.25C183.398 142.91 165.648 154.2 145.258 154.2C124.868 154.2 107.138 142.92 97.918 126.28C109.038 112.41 126.108 103.55 145.258 103.55C164.408 103.55 181.478 112.42 192.598 126.26V126.25Z" fill="#8C90FF"/>
<path d="M145.258 101.53C158.795 101.53 169.768 90.5563 169.768 77.0198C169.768 63.4833 158.795 52.5098 145.258 52.5098C131.722 52.5098 120.748 63.4833 120.748 77.0198C120.748 90.5563 131.722 101.53 145.258 101.53Z" fill="#8C90FF"/>
<path d="M51.6077 57.0101V49.2901C51.6077 45.4201 54.7377 42.2901 58.6077 42.2901H73.7377C77.6077 42.2901 80.7377 45.4201 80.7377 49.2901V57.0101H87.6677V49.2901C87.6677 41.6101 81.4177 35.3501 73.7277 35.3501H58.5977C50.9177 35.3501 44.6577 41.6001 44.6577 49.2901V57.0101H51.5877H51.6077Z" fill="url(#paint0_linear_2023_1388)"/>
<path d="M101.743 92.5993C106.206 72.9526 93.898 53.4074 74.2513 48.9437C54.6046 44.4801 35.0594 56.7884 30.5958 76.4351C26.1321 96.0818 38.4404 115.627 58.0871 120.091C77.7338 124.554 97.279 112.246 101.743 92.5993Z" fill="url(#paint1_linear_2023_1388)"/>
<path d="M99.9384 92.1918C104.177 73.536 92.4893 54.9766 73.8336 50.7382C55.1779 46.4997 36.6185 58.1872 32.38 76.8429C28.1415 95.4986 39.829 114.058 58.4847 118.297C77.1405 122.535 95.6999 110.847 99.9384 92.1918Z" fill="url(#paint2_linear_2023_1388)"/>
<path d="M66.1779 114.06C82.4869 114.06 95.7079 100.839 95.7079 84.53C95.7079 68.221 82.4869 55 66.1779 55C49.869 55 36.6479 68.221 36.6479 84.53C36.6479 100.839 49.869 114.06 66.1779 114.06Z" fill="url(#paint3_linear_2023_1388)"/>
<g style="mix-blend-mode:overlay" opacity="0.45">
<path d="M38.5979 86.48C38.5979 70.17 51.8179 56.95 68.1279 56.95C75.7879 56.95 82.7379 59.89 87.9879 64.67C82.5879 58.74 74.8279 55 66.1779 55C49.8679 55 36.6479 68.22 36.6479 84.53C36.6479 93.18 40.3879 100.94 46.3279 106.35C41.5479 101.1 38.6079 94.15 38.6079 86.49L38.5979 86.48Z" fill="white"/>
</g>
<g style="mix-blend-mode:multiply" opacity="0.67">
<path d="M84.8879 61.6799C89.0679 66.7699 92.9679 74.6799 92.9679 81.7799C92.9679 98.0899 79.7479 111.31 63.4379 111.31C56.3379 111.31 48.4279 107.41 43.3379 103.23C48.7579 109.84 56.9779 114.06 66.1879 114.06C82.4979 114.06 95.7179 100.84 95.7179 84.5299C95.7179 75.3199 91.4979 67.0999 84.8879 61.6799Z" fill="#95908F"/>
</g>
<g style="mix-blend-mode:multiply" opacity="0.67">
<path d="M67.8081 76.07C67.8081 74.4 66.5381 73.44 64.3081 73.44C61.8081 73.44 58.6581 74.93 55.8081 77.34L52.7881 71.43C56.7281 68.54 61.0281 66.79 65.4881 66.79C71.7081 66.79 76.2181 70.03 76.2181 74.89C76.2181 78.22 73.6781 81.68 70.2581 85.14L63.9481 91.45H77.0881V97.89H53.6981L53.6581 92.59L64.8281 81.11C66.5381 79.36 67.8081 77.39 67.8081 76.07Z" fill="#908A88"/>
</g>
<path d="M70.0973 6.51001L56.9373 42.17C56.2473 44.03 57.6273 46 59.6073 46H62.3473L76.9273 6.51001H70.0973Z" fill="#0068C9"/>
<path d="M76.9277 6.51001L62.3477 46H69.1677L83.7477 6.51001H76.9277Z" fill="white"/>
<path d="M83.7477 6.51001L72.6077 36.68L69.1977 45.94L69.1777 45.99H74.0177C74.6877 45.99 75.3077 45.76 75.8077 45.34C76.1977 45.04 76.4977 44.63 76.6877 44.14L90.5677 6.51001H83.7377H83.7477Z" fill="#FF341C"/>
<path style="mix-blend-mode:multiply" opacity="0.69" d="M80.2977 34.3899L76.6877 44.1499C76.4977 44.6399 76.1877 45.0499 75.8077 45.3499C75.3177 45.7699 74.6977 45.9999 74.0177 45.9999H59.5977C57.6177 45.9999 56.2577 44.0199 56.9277 42.1599L70.0477 6.6499L80.2977 34.3799V34.3899Z" fill="url(#paint4_linear_2023_1388)"/>
<path d="M61.4677 6.51001H54.6377L69.1877 45.94L69.2077 45.99H74.0177C74.6877 45.99 75.3077 45.76 75.8077 45.34L72.6077 36.68L61.4677 6.51001Z" fill="#0068C9"/>
<path d="M47.8174 6.51001L62.3974 46H69.2174L54.6374 6.51001H47.8174Z" fill="white"/>
<path d="M40.9875 6.51001L54.8775 44.14C55.2875 45.26 56.3575 46 57.5475 46H62.3875L47.8075 6.51001H40.9775H40.9875Z" fill="#FF341C"/>
<path d="M279.545 376.66H11.505L0.10498 397.55H275.745L279.545 376.66Z" fill="url(#paint5_linear_2023_1388)"/>
<g style="mix-blend-mode:multiply" opacity="0.67">
<path d="M279.545 376.66H11.505L0.10498 397.55H275.745L279.545 376.66Z" fill="#95908F"/>
</g>
<path d="M272.6 398H0V478.54H272.6V398Z" fill="url(#paint6_linear_2023_1388)"/>
<path d="M119.48 456V446.266L135.29 434.858C139.754 431.634 140.808 429.712 140.808 427.48C140.808 425.124 138.762 423.574 135.972 423.574C132.314 423.574 129.462 425.31 126.176 428.596L118.736 421.094C123.448 415.514 129.214 412.662 136.282 412.662C146.388 412.662 153.208 418.738 153.208 426.984C153.208 432.564 150.976 436.904 143.412 441.74L137.894 445.274H153.58V456H119.48Z" fill="white"/>
<defs>
<filter id="filter0_bd_2023_1388" x="-12.3521" y="-40.3301" width="315.22" height="399.97" filterUnits="userSpaceOnUse" color-interpolation-filters="sRGB">
<feFlood flood-opacity="0" result="BackgroundImageFix"/>
<feGaussianBlur in="BackgroundImageFix" stdDeviation="23.5"/>
<feComposite in2="SourceAlpha" operator="in" result="effect1_backgroundBlur_2023_1388"/>
<feColorMatrix in="SourceAlpha" type="matrix" values="0 0 0 0 0 0 0 0 0 0 0 0 0 0 0 0 0 0 127 0" result="hardAlpha"/>
<feOffset dy="4"/>
<feGaussianBlur stdDeviation="5"/>
<feComposite in2="hardAlpha" operator="out"/>
<feColorMatrix type="matrix" values="0 0 0 0 0 0 0 0 0 0 0 0 0 0 0 0 0 0 0.24 0"/>
<feBlend mode="normal" in2="effect1_backgroundBlur_2023_1388" result="effect2_dropShadow_2023_1388"/>
<feBlend mode="normal" in="SourceGraphic" in2="effect2_dropShadow_2023_1388" result="shape"/>
</filter>
<linearGradient id="paint0_linear_2023_1388" x1="44.6777" y1="46.1801" x2="87.6777" y2="46.1801" gradientUnits="userSpaceOnUse">
<stop stop-color="#BBBBBB"/>
<stop offset="1" stop-color="white"/>
</linearGradient>
<linearGradient id="paint1_linear_2023_1388" x1="83.4645" y1="101.831" x2="45.2245" y2="63.5905" gradientUnits="userSpaceOnUse">
<stop stop-color="#BBBBBB"/>
<stop offset="1" stop-color="white"/>
</linearGradient>
<linearGradient id="paint2_linear_2023_1388" x1="46.2023" y1="64.5904" x2="92.4823" y2="110.87" gradientUnits="userSpaceOnUse">
<stop stop-color="#BBBBBB"/>
<stop offset="1" stop-color="white"/>
</linearGradient>
<linearGradient id="paint3_linear_2023_1388" x1="102.058" y1="120.41" x2="30.6679" y2="49.02" gradientUnits="userSpaceOnUse">
<stop stop-color="#BBBBBB"/>
<stop offset="1" stop-color="white"/>
</linearGradient>
<linearGradient id="paint4_linear_2023_1388" x1="74.4377" y1="25.3199" x2="67.5977" y2="28.6399" gradientUnits="userSpaceOnUse">
<stop stop-color="white"/>
<stop offset="1" stop-color="#02183C"/>
</linearGradient>
<linearGradient id="paint5_linear_2023_1388" x1="0.10498" y1="387.1" x2="279.545" y2="387.1" gradientUnits="userSpaceOnUse">
<stop stop-color="#BBBBBB"/>
<stop offset="1" stop-color="white"/>
</linearGradient>
<linearGradient id="paint6_linear_2023_1388" x1="0" y1="438.27" x2="272.6" y2="438.27" gradientUnits="userSpaceOnUse">
<stop stop-color="#BBBBBB"/>
<stop offset="1" stop-color="white"/>
</linearGradient>
</defs>
</svg>
