<svg width="277" height="459" viewBox="0 0 277 459" fill="none" xmlns="http://www.w3.org/2000/svg">
<path d="M264.91 375.88H0L3.84003 397.76H276.44L264.91 375.88Z" fill="url(#paint0_linear_10_1131)"/>
<g style="mix-blend-mode:multiply" opacity="0.67">
<path d="M264.91 375.88H0L3.84003 397.76H276.44L264.91 375.88Z" fill="#AA2D0C"/>
</g>
<path d="M276.092 397.67H3.49219V458.67H276.092V397.67Z" fill="url(#paint1_linear_10_1131)"/>
<path d="M139.372 443.294C133.084 443.294 128.332 441.086 125.26 437.822L130.492 431.63C132.94 433.934 136.012 434.99 138.844 434.99C141.82 434.99 143.308 433.886 143.308 432.398C143.308 430.814 142.204 429.95 138.268 429.998L134.284 430.046V422.27H138.22C141.292 422.27 142.684 421.454 142.684 419.966C142.684 418.334 141.004 417.422 138.316 417.422C135.58 417.422 133.228 418.718 131.116 420.686L125.98 414.974C128.86 411.662 132.988 409.118 139.324 409.118C147.484 409.118 152.188 413.006 152.188 418.19C152.188 421.742 149.884 424.574 146.14 425.678C149.884 426.542 152.908 429.182 152.908 433.262C152.908 439.118 147.628 443.294 139.372 443.294Z" fill="white"/>
<defs>
<linearGradient id="paint0_linear_10_1131" x1="0" y1="386.82" x2="276.44" y2="386.82" gradientUnits="userSpaceOnUse">
<stop stop-color="#A63F00"/>
<stop offset="1" stop-color="#E28130"/>
</linearGradient>
<linearGradient id="paint1_linear_10_1131" x1="3.49219" y1="428.17" x2="276.092" y2="428.17" gradientUnits="userSpaceOnUse">
<stop stop-color="#A63F00"/>
<stop offset="1" stop-color="#E28130"/>
</linearGradient>
</defs>
</svg>
