<svg width="277" height="459" viewBox="0 0 277 459" fill="none" xmlns="http://www.w3.org/2000/svg">
<g filter="url(#filter0_bd_2027_3)">
<path d="M244.438 6.02002H35.0679C32.992 6.02002 31.3091 7.70293 31.3091 9.7789V302.241C31.3091 304.317 32.992 306 35.0679 306H244.438C246.514 306 248.197 304.317 248.197 302.241V9.7789C248.197 7.70293 246.514 6.02002 244.438 6.02002Z" fill="white"/>
</g>
<path d="M192.764 97.4551C192.764 106.727 190.373 115.466 186.165 123.068C177.143 139.408 159.738 150.466 139.753 150.466C119.768 150.466 102.383 139.398 93.3411 123.089C89.1333 115.487 86.7422 106.748 86.7422 97.4551C86.7422 68.1671 110.496 44.4443 139.753 44.4443C169.01 44.4443 192.764 68.1775 192.764 97.4551Z" fill="#E5E7FD"/>
<path d="M186.164 123.256C177.143 139.596 159.737 150.654 139.753 150.654C119.768 150.654 102.383 139.596 93.3408 123.276C104.242 109.682 120.969 100.984 139.753 100.984C158.537 100.984 175.264 109.671 186.164 123.245V123.256Z" fill="#8C90FF"/>
<path d="M139.763 99.0212C153.038 99.0212 163.799 88.2599 163.799 74.9852C163.799 61.7105 153.038 50.9492 139.763 50.9492C126.488 50.9492 115.727 61.7105 115.727 74.9852C115.727 88.2599 126.488 99.0212 139.763 99.0212Z" fill="#8C90FF"/>
<path d="M207.873 45.9801V39.8701C207.873 36.8101 210.353 34.3301 213.413 34.3301H225.393C228.453 34.3301 230.933 36.8101 230.933 39.8701V45.9801H236.423V39.8701C236.423 33.7901 231.473 28.8401 225.393 28.8401H213.413C207.333 28.8401 202.383 33.7901 202.383 39.8701V45.9801H207.873Z" fill="url(#paint0_linear_2027_3)"/>
<path d="M247.528 74.1482C251.062 58.5946 241.318 43.1213 225.764 39.5876C210.211 36.0539 194.737 45.798 191.203 61.3516C187.67 76.9052 197.414 92.3785 212.967 95.9122C228.521 99.4459 243.994 89.7019 247.528 74.1482Z" fill="url(#paint1_linear_2027_3)"/>
<path d="M246.095 73.8248C249.45 59.0575 240.198 44.3663 225.431 41.0113C210.663 37.6562 195.972 46.9077 192.617 61.6751C189.262 76.4424 198.514 91.1334 213.281 94.4884C228.048 97.8435 242.739 88.5921 246.095 73.8248Z" fill="url(#paint2_linear_2027_3)"/>
<path d="M242.282 72.9735C245.145 60.3825 237.259 47.8546 224.668 44.9917C212.077 42.1287 199.549 50.0149 196.686 62.606C193.823 75.197 201.709 87.7249 214.3 90.5878C226.891 93.4508 239.419 85.5646 242.282 72.9735Z" fill="url(#paint3_linear_2027_3)"/>
<g style="mix-blend-mode:overlay" opacity="0.45">
<path d="M197.573 69.3201C197.573 56.4101 208.043 45.9401 220.953 45.9401C227.013 45.9401 232.523 48.2701 236.673 52.0501C232.393 47.3601 226.253 44.3901 219.403 44.3901C206.493 44.3901 196.023 54.8601 196.023 67.7701C196.023 74.6201 198.983 80.7601 203.683 85.0401C199.903 80.8901 197.573 75.3801 197.573 69.3201Z" fill="white"/>
</g>
<g style="mix-blend-mode:multiply" opacity="0.67">
<path d="M234.213 49.6802C237.523 53.7102 240.603 59.9702 240.603 65.5902C240.603 78.5002 230.133 88.9702 217.223 88.9702C211.603 88.9702 205.343 85.8802 201.313 82.5802C205.603 87.8102 212.113 91.1502 219.403 91.1502C232.313 91.1502 242.783 80.6802 242.783 67.7702C242.783 60.4802 239.443 53.9702 234.213 49.6802Z" fill="#AA2D0C"/>
</g>
<path d="M222.503 6.01001L212.083 34.24C211.543 35.71 212.633 37.27 214.193 37.27H216.363L227.903 6.01001H222.503Z" fill="#0068C9"/>
<path d="M227.913 6.01001L216.363 37.27H221.773L233.313 6.01001H227.913Z" fill="white"/>
<path d="M233.303 6.01L224.483 29.89L221.783 37.22V37.26H225.603C226.133 37.26 226.623 37.08 227.013 36.74C227.323 36.5 227.563 36.18 227.713 35.79L238.703 6H233.293L233.303 6.01Z" fill="#FF341C"/>
<path style="mix-blend-mode:multiply" opacity="0.69" d="M230.573 28.0801L227.723 35.8001C227.573 36.1901 227.333 36.5101 227.023 36.7501C226.633 37.0901 226.143 37.2701 225.613 37.2701H214.193C212.623 37.2701 211.553 35.7001 212.083 34.2301L222.463 6.12012L230.583 28.0701L230.573 28.0801Z" fill="url(#paint4_linear_2027_3)"/>
<path d="M215.673 6.01H210.273L221.793 37.22V37.26H225.613C226.143 37.26 226.633 37.08 227.023 36.74L224.493 29.88L215.673 6V6.01Z" fill="#0068C9"/>
<path d="M204.863 6.01001L216.403 37.27H221.813L210.273 6.01001H204.863Z" fill="white"/>
<path d="M199.463 6.01001L210.463 35.8C210.793 36.68 211.633 37.27 212.573 37.27H216.403L204.863 6.01001H199.463Z" fill="#FF341C"/>
<path d="M228.473 71.63C228.473 76.31 224.623 79.57 218.593 79.57C215.053 79.57 211.383 78.39 209.023 76.59L211.593 71.7C213.503 73.68 215.793 74.72 218.113 74.72C220.783 74.72 222.273 73.61 222.273 71.7C222.273 69.79 220.783 68.75 218.073 68.75H213.983V65.35L219.673 59.91H210.313L210.273 55.02H227.263V58.7L220.713 64.8L221.923 64.97C225.773 65.56 228.473 67.92 228.473 71.63Z" fill="#7E2700"/>
<path d="M264.91 375.88H0L3.84003 397.76H276.44L264.91 375.88Z" fill="url(#paint5_linear_2027_3)"/>
<g style="mix-blend-mode:multiply" opacity="0.67">
<path d="M264.91 375.88H0L3.84003 397.76H276.44L264.91 375.88Z" fill="#AA2D0C"/>
</g>
<path d="M276.092 397.67H3.49219V458.67H276.092V397.67Z" fill="url(#paint6_linear_2027_3)"/>
<path d="M139.372 443.294C133.084 443.294 128.332 441.086 125.26 437.822L130.492 431.63C132.94 433.934 136.012 434.99 138.844 434.99C141.82 434.99 143.308 433.886 143.308 432.398C143.308 430.814 142.204 429.95 138.268 429.998L134.284 430.046V422.27H138.22C141.292 422.27 142.684 421.454 142.684 419.966C142.684 418.334 141.004 417.422 138.316 417.422C135.58 417.422 133.228 418.718 131.116 420.686L125.98 414.974C128.86 411.662 132.988 409.118 139.324 409.118C147.484 409.118 152.188 413.006 152.188 418.19C152.188 421.742 149.884 424.574 146.14 425.678C149.884 426.542 152.908 429.182 152.908 433.262C152.908 439.118 147.628 443.294 139.372 443.294Z" fill="white"/>
<defs>
<filter id="filter0_bd_2027_3" x="-15.6909" y="-40.98" width="310.888" height="393.98" filterUnits="userSpaceOnUse" color-interpolation-filters="sRGB">
<feFlood flood-opacity="0" result="BackgroundImageFix"/>
<feGaussianBlur in="BackgroundImageFix" stdDeviation="23.5"/>
<feComposite in2="SourceAlpha" operator="in" result="effect1_backgroundBlur_2027_3"/>
<feColorMatrix in="SourceAlpha" type="matrix" values="0 0 0 0 0 0 0 0 0 0 0 0 0 0 0 0 0 0 127 0" result="hardAlpha"/>
<feOffset dy="4"/>
<feGaussianBlur stdDeviation="5"/>
<feComposite in2="hardAlpha" operator="out"/>
<feColorMatrix type="matrix" values="0 0 0 0 0 0 0 0 0 0 0 0 0 0 0 0 0 0 0.24 0"/>
<feBlend mode="normal" in2="effect1_backgroundBlur_2027_3" result="effect2_dropShadow_2027_3"/>
<feBlend mode="normal" in="SourceGraphic" in2="effect2_dropShadow_2027_3" result="shape"/>
</filter>
<linearGradient id="paint0_linear_2027_3" x1="202.383" y1="37.4101" x2="236.423" y2="37.4101" gradientUnits="userSpaceOnUse">
<stop stop-color="#A63F00"/>
<stop offset="1" stop-color="#E28130"/>
</linearGradient>
<linearGradient id="paint1_linear_2027_3" x1="233.05" y1="81.4847" x2="202.78" y2="51.2147" gradientUnits="userSpaceOnUse">
<stop stop-color="#A63F00"/>
<stop offset="1" stop-color="#E28130"/>
</linearGradient>
<linearGradient id="paint2_linear_2027_3" x1="203.558" y1="52.0143" x2="240.188" y2="88.6443" gradientUnits="userSpaceOnUse">
<stop stop-color="#A63F00"/>
<stop offset="1" stop-color="#E28130"/>
</linearGradient>
<linearGradient id="paint3_linear_2027_3" x1="247.894" y1="96.1084" x2="191.384" y2="39.5984" gradientUnits="userSpaceOnUse">
<stop stop-color="#A63F00"/>
<stop offset="1" stop-color="#E28130"/>
</linearGradient>
<linearGradient id="paint4_linear_2027_3" x1="225.943" y1="20.9001" x2="220.523" y2="23.5301" gradientUnits="userSpaceOnUse">
<stop stop-color="white"/>
<stop offset="1" stop-color="#02183C"/>
</linearGradient>
<linearGradient id="paint5_linear_2027_3" x1="0" y1="386.82" x2="276.44" y2="386.82" gradientUnits="userSpaceOnUse">
<stop stop-color="#A63F00"/>
<stop offset="1" stop-color="#E28130"/>
</linearGradient>
<linearGradient id="paint6_linear_2027_3" x1="3.49219" y1="428.17" x2="276.092" y2="428.17" gradientUnits="userSpaceOnUse">
<stop stop-color="#A63F00"/>
<stop offset="1" stop-color="#E28130"/>
</linearGradient>
</defs>
</svg>
