<svg width="453" height="130" viewBox="0 0 453 130" fill="none" xmlns="http://www.w3.org/2000/svg">
<g filter="url(#filter0_bd_2018_35)">
<rect x="10" y="6" width="433" height="110" rx="55" fill="#A2B000" shape-rendering="crispEdges"/>
<path d="M98.0193 71L96.5233 67.328H86.1193L84.6233 71H79.0133L88.5333 47.642H94.1433L103.663 71H98.0193ZM87.8533 63.078H94.7893L91.3213 54.544L87.8533 63.078ZM116.446 53.014C120.254 53.014 122.974 55.836 122.974 59.814V71H118.18V60.868C118.18 58.692 116.82 57.196 114.848 57.196C112.774 57.196 111.176 58.692 111.176 60.596L111.142 60.494V71H106.178V53.422H111.142V55.632C112.196 54.034 114.168 53.014 116.446 53.014ZM133.761 71.408C130.939 71.408 127.947 70.456 125.839 68.756L127.981 65.322C129.545 66.444 131.517 67.294 133.863 67.294C135.189 67.294 136.141 66.75 136.141 65.968C136.141 64.88 134.849 64.54 133.047 64.064C129.443 63.18 126.655 62.194 126.621 58.726C126.587 55.394 129.341 53.014 133.489 53.014C136.005 53.014 138.487 53.898 140.425 55.19L138.419 58.726C136.821 57.74 134.985 57.162 133.489 57.162C132.265 57.162 131.415 57.604 131.415 58.216C131.415 59.168 132.129 59.44 134.509 60.086C137.535 60.868 140.901 61.888 140.901 65.73C140.901 69.198 138.079 71.408 133.761 71.408ZM148.652 71L142.668 53.422H147.53L150.862 64.37L154.33 53.422H158.444L161.912 64.37L165.244 53.422H170.106L164.122 71H159.668L156.404 59.95L153.106 71H148.652ZM180.285 67.022C181.679 67.022 183.379 66.376 184.331 65.458L187.493 68.688C185.929 70.32 182.903 71.408 180.319 71.408C175.083 71.408 171.003 67.566 171.003 62.16C171.003 56.856 174.913 53.014 180.047 53.014C185.555 53.014 188.785 57.196 188.785 63.826H176.103C176.681 65.73 178.211 67.022 180.285 67.022ZM180.251 57.4C178.381 57.4 176.817 58.488 176.171 60.256H184.025C183.549 58.522 182.257 57.4 180.251 57.4ZM197.108 56.686C198.264 54.408 200.44 53.014 203.126 53.014V57.196C199.454 57.196 197.108 59.304 197.108 62.602V71H192.144V53.422H197.108V56.686ZM215.826 71V47.642H220.824L232.078 62.738V47.642H237.11V71H232.078L220.824 55.904V71H215.826ZM250.452 71.408C245.216 71.408 240.83 67.192 240.83 62.194C240.83 57.196 245.216 53.014 250.452 53.014C255.654 53.014 260.006 57.196 260.006 62.194C260.006 67.192 255.654 71.408 250.452 71.408ZM250.452 67.226C253.07 67.226 255.28 64.914 255.28 62.194C255.28 59.474 253.07 57.196 250.452 57.196C247.8 57.196 245.59 59.474 245.59 62.194C245.59 64.914 247.8 67.226 250.452 67.226ZM266.954 71L260.97 53.422H265.832L269.164 64.37L272.632 53.422H276.746L280.214 64.37L283.546 53.422H288.408L282.424 71H277.97L274.706 59.95L271.408 71H266.954Z" fill="white"/>
<g clip-path="url(#clip0_2018_35)">
<path d="M332.546 82C332.49 82 332.444 82 332.388 82C330.898 81.9442 329.53 81.1716 328.739 79.9149C323.74 72.0772 314.981 64.77 314.897 64.6955C312.979 63.1037 312.71 60.2553 314.301 58.3378C315.893 56.4202 318.732 56.1503 320.659 57.742C320.985 58.012 327.333 63.2899 332.797 70.1224C338.317 63.8577 349.823 52.2593 367.788 40.7168C369.882 39.367 372.684 39.9721 374.025 42.0758C375.374 44.1702 374.769 46.9721 372.666 48.3125C348.296 63.9881 336.297 80.008 336.176 80.1662C335.32 81.3205 333.97 82 332.546 82Z" fill="white"/>
</g>
</g>
<defs>
<filter id="filter0_bd_2018_35" x="-37" y="-41" width="527" height="204" filterUnits="userSpaceOnUse" color-interpolation-filters="sRGB">
<feFlood flood-opacity="0" result="BackgroundImageFix"/>
<feGaussianBlur in="BackgroundImageFix" stdDeviation="23.5"/>
<feComposite in2="SourceAlpha" operator="in" result="effect1_backgroundBlur_2018_35"/>
<feColorMatrix in="SourceAlpha" type="matrix" values="0 0 0 0 0 0 0 0 0 0 0 0 0 0 0 0 0 0 127 0" result="hardAlpha"/>
<feOffset dy="4"/>
<feGaussianBlur stdDeviation="5"/>
<feComposite in2="hardAlpha" operator="out"/>
<feColorMatrix type="matrix" values="0 0 0 0 0 0 0 0 0 0 0 0 0 0 0 0 0 0 0.24 0"/>
<feBlend mode="normal" in2="effect1_backgroundBlur_2018_35" result="effect2_dropShadow_2018_35"/>
<feBlend mode="normal" in="SourceGraphic" in2="effect2_dropShadow_2018_35" result="shape"/>
</filter>
<clipPath id="clip0_2018_35">
<rect width="61.4827" height="42" fill="white" transform="translate(313.259 40)"/>
</clipPath>
</defs>
</svg>
