<svg width="64" height="66" viewBox="0 0 64 66" fill="none" xmlns="http://www.w3.org/2000/svg">
<path d="M64 32.9844C64 38.583 62.5531 43.8588 60.0153 48.4446C54.5725 58.3061 44.0654 64.9844 32 64.9844C19.9346 64.9844 9.44974 58.3061 3.9847 48.4557C1.44696 43.87 0 38.5941 0 32.9844C0 15.3092 14.336 0.98436 32 0.98436C49.664 0.98436 64 15.3092 64 32.9844Z" fill="#E5E7FD"/>
<path d="M60.0155 48.5558C54.5727 58.4174 44.0656 65.0957 32.0002 65.0957C19.9348 65.0957 9.44991 58.4174 3.98486 48.567C10.563 40.3638 20.6582 35.1103 32.0002 35.1103C43.3421 35.1103 53.4374 40.3528 60.0155 48.5448V48.5558Z" fill="#8C90FF"/>
<path d="M46.5142 19.4164C46.5142 27.4303 40.0252 33.9193 32.0113 33.9193C23.9973 33.9193 17.5083 27.4303 17.5083 19.4164C17.5083 11.4024 23.9973 4.91344 32.0113 4.91344C40.0252 4.91344 46.5142 11.4024 46.5142 19.4164Z" fill="#8C90FF"/>
</svg>
