<svg width="453" height="149" viewBox="0 0 453 149" fill="none" xmlns="http://www.w3.org/2000/svg">
<g filter="url(#filter0_bd_2018_32)">
<rect x="10" y="6" width="433" height="128.088" rx="64.0438" fill="url(#paint0_linear_2018_32)" shape-rendering="crispEdges"/>
<path d="M82.9894 75.5218H94.6174V80.0438H77.9574V56.6858H82.9894V75.5218ZM106.01 76.0658C107.404 76.0658 109.104 75.4198 110.056 74.5018L113.218 77.7318C111.654 79.3638 108.628 80.4518 106.044 80.4518C100.808 80.4518 96.7281 76.6098 96.7281 71.2038C96.7281 65.8998 100.638 62.0578 105.772 62.0578C111.28 62.0578 114.51 66.2398 114.51 72.8698H101.828C102.406 74.7738 103.936 76.0658 106.01 76.0658ZM105.976 66.4438C104.106 66.4438 102.542 67.5318 101.896 69.2998H109.75C109.274 67.5658 107.982 66.4438 105.976 66.4438ZM125.722 62.0578C130.312 62.0578 133.44 64.9478 133.44 69.5378V80.0438H128.646V78.2758C127.388 79.7038 125.382 80.4518 123.478 80.4518C119.738 80.4518 116.848 78.2078 116.848 74.8418C116.848 71.3738 120.078 68.9938 124.158 68.9938C125.586 68.9938 127.15 69.2998 128.646 69.8778V69.5378C128.646 67.6678 127.49 66.0358 124.6 66.0358C122.968 66.0358 121.438 66.5798 120.044 67.2938L118.378 63.9958C120.86 62.7378 123.274 62.0578 125.722 62.0578ZM124.6 77.0178C126.504 77.0178 128.306 76.1338 128.646 74.5018V72.8698C127.524 72.4618 126.232 72.2238 124.872 72.2238C123.07 72.2238 121.642 73.2778 121.642 74.7058C121.642 76.1338 122.9 77.0178 124.6 77.0178ZM150.748 56.2778H155.712V80.0438H150.748V77.5278C149.354 79.3638 147.314 80.4518 144.832 80.4518C140.14 80.4518 136.74 76.6438 136.74 71.2378C136.74 65.8658 140.14 62.0578 144.832 62.0578C147.314 62.0578 149.354 63.1458 150.748 64.9818V56.2778ZM146.26 76.2698C148.878 76.2698 150.748 74.1958 150.748 71.2378C150.748 68.3138 148.878 66.2398 146.26 66.2398C143.506 66.2398 141.568 68.3138 141.568 71.2378C141.568 74.1958 143.506 76.2698 146.26 76.2698ZM168.366 76.0658C169.76 76.0658 171.46 75.4198 172.412 74.5018L175.574 77.7318C174.01 79.3638 170.984 80.4518 168.4 80.4518C163.164 80.4518 159.084 76.6098 159.084 71.2038C159.084 65.8998 162.994 62.0578 168.128 62.0578C173.636 62.0578 176.866 66.2398 176.866 72.8698H164.184C164.762 74.7738 166.292 76.0658 168.366 76.0658ZM168.332 66.4438C166.462 66.4438 164.898 67.5318 164.252 69.2998H172.106C171.63 67.5658 170.338 66.4438 168.332 66.4438ZM185.188 65.7298C186.344 63.4518 188.52 62.0578 191.206 62.0578V66.2398C187.534 66.2398 185.188 68.3478 185.188 71.6458V80.0438H180.224V62.4658H185.188V65.7298ZM204.916 62.0578C209.608 62.0578 213.008 65.8658 213.008 71.2378C213.008 76.6438 209.608 80.4518 204.916 80.4518C202.468 80.4518 200.428 79.3978 199.034 77.5618V80.0438H194.07V56.2778H199.034V64.9138C200.428 63.1118 202.468 62.0578 204.916 62.0578ZM203.488 76.2698C206.242 76.2698 208.18 74.1958 208.18 71.2378C208.18 68.3138 206.242 66.2398 203.488 66.2398C201.074 66.2398 199.306 68.0078 199.034 70.5578V71.9178C199.306 74.5018 201.074 76.2698 203.488 76.2698ZM225.151 80.4518C219.915 80.4518 215.529 76.2358 215.529 71.2378C215.529 66.2398 219.915 62.0578 225.151 62.0578C230.353 62.0578 234.705 66.2398 234.705 71.2378C234.705 76.2358 230.353 80.4518 225.151 80.4518ZM225.151 76.2698C227.769 76.2698 229.979 73.9578 229.979 71.2378C229.979 68.5178 227.769 66.2398 225.151 66.2398C222.499 66.2398 220.289 68.5178 220.289 71.2378C220.289 73.9578 222.499 76.2698 225.151 76.2698ZM245.918 62.0578C250.508 62.0578 253.636 64.9478 253.636 69.5378V80.0438H248.842V78.2758C247.584 79.7038 245.578 80.4518 243.674 80.4518C239.934 80.4518 237.044 78.2078 237.044 74.8418C237.044 71.3738 240.274 68.9938 244.354 68.9938C245.782 68.9938 247.346 69.2998 248.842 69.8778V69.5378C248.842 67.6678 247.686 66.0358 244.796 66.0358C243.164 66.0358 241.634 66.5798 240.24 67.2938L238.574 63.9958C241.056 62.7378 243.47 62.0578 245.918 62.0578ZM244.796 77.0178C246.7 77.0178 248.502 76.1338 248.842 74.5018V72.8698C247.72 72.4618 246.428 72.2238 245.068 72.2238C243.266 72.2238 241.838 73.2778 241.838 74.7058C241.838 76.1338 243.096 77.0178 244.796 77.0178ZM262.784 65.7298C263.94 63.4518 266.116 62.0578 268.802 62.0578V66.2398C265.13 66.2398 262.784 68.3478 262.784 71.6458V80.0438H257.82V62.4658H262.784V65.7298ZM284.789 56.2778H289.753V80.0438H284.789V77.5278C283.395 79.3638 281.355 80.4518 278.873 80.4518C274.181 80.4518 270.781 76.6438 270.781 71.2378C270.781 65.8658 274.181 62.0578 278.873 62.0578C281.355 62.0578 283.395 63.1458 284.789 64.9818V56.2778ZM280.301 76.2698C282.919 76.2698 284.789 74.1958 284.789 71.2378C284.789 68.3138 282.919 66.2398 280.301 66.2398C277.547 66.2398 275.609 68.3138 275.609 71.2378C275.609 74.1958 277.547 76.2698 280.301 76.2698Z" fill="white"/>
<path d="M373.274 66.1868L362.115 74.1993C361.915 74.3415 361.7 74.4419 361.477 74.5004C360.71 74.7069 359.863 74.4321 359.371 73.7493C358.738 72.8677 358.94 71.6399 359.821 71.0076L366.964 65.8794C356.374 62.8741 348.063 63.1234 341.578 64.8581C334.221 66.831 329.145 70.7466 325.835 74.2754C322.529 77.8011 321.023 80.9358 320.906 81.1913C320.9 81.2025 320.9 81.2025 320.9 81.2025L320.9 81.204C320.648 81.7627 320.166 82.1473 319.615 82.2952C319.194 82.4076 318.732 82.3825 318.302 82.1886C317.313 81.7437 316.872 80.581 317.316 79.5909C317.378 79.459 318.943 76.0017 322.616 71.967C326.285 67.9394 332.101 63.3271 340.561 61.0611C347.758 59.1295 356.82 58.9266 367.944 62.0717L362.788 54.7626C362.162 53.8754 362.374 52.6514 363.259 52.0246C364.146 51.3983 365.371 51.6103 365.998 52.4965L373.734 63.4582C374.356 64.3389 374.15 65.5565 373.274 66.1868Z" fill="white"/>
</g>
<defs>
<filter id="filter0_bd_2018_32" x="-37" y="-41" width="527" height="222.088" filterUnits="userSpaceOnUse" color-interpolation-filters="sRGB">
<feFlood flood-opacity="0" result="BackgroundImageFix"/>
<feGaussianBlur in="BackgroundImageFix" stdDeviation="23.5"/>
<feComposite in2="SourceAlpha" operator="in" result="effect1_backgroundBlur_2018_32"/>
<feColorMatrix in="SourceAlpha" type="matrix" values="0 0 0 0 0 0 0 0 0 0 0 0 0 0 0 0 0 0 127 0" result="hardAlpha"/>
<feOffset dy="4"/>
<feGaussianBlur stdDeviation="5"/>
<feComposite in2="hardAlpha" operator="out"/>
<feColorMatrix type="matrix" values="0 0 0 0 0 0 0 0 0 0 0 0 0 0 0 0 0 0 0.24 0"/>
<feBlend mode="normal" in2="effect1_backgroundBlur_2018_32" result="effect2_dropShadow_2018_32"/>
<feBlend mode="normal" in="SourceGraphic" in2="effect2_dropShadow_2018_32" result="shape"/>
</filter>
<linearGradient id="paint0_linear_2018_32" x1="390.574" y1="-49.1927" x2="202.954" y2="375.347" gradientUnits="userSpaceOnUse">
<stop stop-color="#FFBB73"/>
<stop offset="0.05" stop-color="#FFB768"/>
<stop offset="0.13" stop-color="#FFAD4C"/>
<stop offset="0.25" stop-color="#FF9D1F"/>
<stop offset="0.31" stop-color="#FF9300"/>
<stop offset="0.41" stop-color="#FF8707"/>
<stop offset="0.57" stop-color="#FF671D"/>
<stop offset="0.79" stop-color="#FF353F"/>
<stop offset="1" stop-color="#FF0063"/>
</linearGradient>
</defs>
</svg>
