<svg width="910" height="499" viewBox="0 0 910 499" fill="none" xmlns="http://www.w3.org/2000/svg">
<g filter="url(#filter0_bd_2039_312)">
<path fill-rule="evenodd" clip-rule="evenodd" d="M762.697 110.407H546.065C536.641 69.6512 496.349 39 448.046 39C399.743 39 359.451 69.6512 350.027 110.407H147.303C71.4703 110.407 10 171.878 10 247.71V347.477C10 423.31 71.4703 484.78 147.303 484.78H762.697C838.53 484.78 900 423.31 900 347.477V247.71C900 171.878 838.53 110.407 762.697 110.407Z" fill="url(#paint0_linear_2039_312)" fill-opacity="0.6" shape-rendering="crispEdges"/>
</g>
<mask id="mask0_2039_312" style="mask-type:luminance" maskUnits="userSpaceOnUse" x="327" y="0" width="78" height="78">
<path d="M346.333 0C335.656 0 327 8.6574 327 19.3352V58.4182C327 69.096 335.656 77.7534 346.333 77.7534H378.785C384.874 77.7534 389.716 72.7865 389.716 66.8213V62.4734C389.716 62.0991 389.966 61.7296 390.46 61.7296C399.155 61.48 404.745 57.2569 404.745 49.9288V31.1743H372.95V35.9925C372.95 41.7513 377.533 46.3344 383.286 46.3344H389.462V58.7494C389.462 60.3954 388.128 61.7296 386.482 61.7296H347.49C345.018 61.7296 343.022 59.7284 343.022 57.2569V20.4965C343.022 18.025 345.023 16.0239 347.49 16.0239L389.342 16.0335V0H346.333Z" fill="white"/>
</mask>
<g mask="url(#mask0_2039_312)">
<mask id="mask1_2039_312" style="mask-type:luminance" maskUnits="userSpaceOnUse" x="327" y="0" width="78" height="78">
<path d="M404.74 0H327V77.7534H404.74V0Z" fill="white"/>
</mask>
<g mask="url(#mask1_2039_312)">
<mask id="mask2_2039_312" style="mask-type:luminance" maskUnits="userSpaceOnUse" x="327" y="0" width="78" height="78">
<path d="M404.74 0H327V77.7534H404.74V0Z" fill="white"/>
</mask>
<g mask="url(#mask2_2039_312)">
<rect x="326.818" y="-0.187012" width="78.0809" height="78.0894" fill="white"/>
</g>
</g>
</g>
<mask id="mask3_2039_312" style="mask-type:luminance" maskUnits="userSpaceOnUse" x="416" y="0" width="79" height="78">
<path d="M442.678 0C436.593 0 431.752 4.84699 431.752 10.9321V15.28C431.752 15.6543 431.502 16.0239 431.008 16.0239C423.306 16.2734 416.478 20.6213 416.478 30.1809C416.478 39.7405 424.799 46.3296 436.099 46.3296H474.103C476.833 46.3296 478.575 48.0668 478.575 50.8022V57.2617C478.575 59.9971 476.833 61.7344 474.103 61.7344H420.581V77.7582H474.477C485.778 77.7582 494.223 69.312 494.223 58.0103V50.9318C494.223 39.6302 485.778 31.1839 474.477 31.1839H436.598C433.868 31.1839 432.126 29.4467 432.126 26.7112V19.0088C432.126 17.1468 433.244 16.0287 435.106 16.0287H487.759V0H442.678Z" fill="white"/>
</mask>
<g mask="url(#mask3_2039_312)">
<mask id="mask4_2039_312" style="mask-type:luminance" maskUnits="userSpaceOnUse" x="416" y="0" width="79" height="78">
<path d="M494.219 0H416.479V77.7534H494.219V0Z" fill="white"/>
</mask>
<g mask="url(#mask4_2039_312)">
<mask id="mask5_2039_312" style="mask-type:luminance" maskUnits="userSpaceOnUse" x="416" y="0" width="79" height="78">
<path d="M494.22 0H416.48V77.7534H494.22V0Z" fill="white"/>
</mask>
<g mask="url(#mask5_2039_312)">
<rect x="416.417" y="-0.187012" width="77.8506" height="78.0894" fill="white"/>
</g>
</g>
</g>
<mask id="mask6_2039_312" style="mask-type:luminance" maskUnits="userSpaceOnUse" x="507" y="0" width="79" height="78">
<path d="M563.144 0L525.389 36.6404C524.521 37.509 523.278 37.2594 523.278 35.647V0H507.256V22.8528C507.256 31.0495 512.597 36.0165 522.16 38.6272C522.534 38.7519 522.534 39.1215 522.16 39.2462C512.597 41.8521 507.256 46.8239 507.256 55.0206V77.7486H523.278V42.1064C523.278 40.4892 524.521 40.2444 525.389 41.113L563.144 77.7534H585.001L545.015 38.8767L585.001 0H563.144Z" fill="white"/>
</mask>
<g mask="url(#mask6_2039_312)">
<mask id="mask7_2039_312" style="mask-type:luminance" maskUnits="userSpaceOnUse" x="507" y="0" width="78" height="78">
<path d="M584.997 0H507.256V77.7534H584.997V0Z" fill="white"/>
</mask>
<g mask="url(#mask7_2039_312)">
<mask id="mask8_2039_312" style="mask-type:luminance" maskUnits="userSpaceOnUse" x="507" y="0" width="78" height="78">
<path d="M584.997 0H507.257V77.7534H584.997V0Z" fill="white"/>
</mask>
<g mask="url(#mask8_2039_312)">
<rect x="507.165" y="-0.187012" width="77.8506" height="78.0894" fill="white"/>
</g>
</g>
</g>
<defs>
<filter id="filter0_bd_2039_312" x="-37" y="-8" width="984" height="539.78" filterUnits="userSpaceOnUse" color-interpolation-filters="sRGB">
<feFlood flood-opacity="0" result="BackgroundImageFix"/>
<feGaussianBlur in="BackgroundImageFix" stdDeviation="23.5"/>
<feComposite in2="SourceAlpha" operator="in" result="effect1_backgroundBlur_2039_312"/>
<feColorMatrix in="SourceAlpha" type="matrix" values="0 0 0 0 0 0 0 0 0 0 0 0 0 0 0 0 0 0 127 0" result="hardAlpha"/>
<feOffset dy="4"/>
<feGaussianBlur stdDeviation="5"/>
<feComposite in2="hardAlpha" operator="out"/>
<feColorMatrix type="matrix" values="0 0 0 0 0 0 0 0 0 0 0 0 0 0 0 0 0 0 0.24 0"/>
<feBlend mode="normal" in2="effect1_backgroundBlur_2039_312" result="effect2_dropShadow_2039_312"/>
<feBlend mode="normal" in="SourceGraphic" in2="effect2_dropShadow_2039_312" result="shape"/>
</filter>
<linearGradient id="paint0_linear_2039_312" x1="792.242" y1="-153.086" x2="-54.9374" y2="979.061" gradientUnits="userSpaceOnUse">
<stop stop-color="#938B81"/>
<stop offset="0.05" stop-color="#FFB768"/>
<stop offset="0.13" stop-color="#FFAD4C"/>
<stop offset="0.25" stop-color="#FF9D1F"/>
<stop offset="0.31" stop-color="#FF9300"/>
<stop offset="0.41" stop-color="#FF8707"/>
<stop offset="0.57" stop-color="#FF671D"/>
<stop offset="0.79" stop-color="#FF353F"/>
<stop offset="1" stop-color="#FF0063"/>
</linearGradient>
</defs>
</svg>
