<svg width="453" height="149" viewBox="0 0 453 149" fill="none" xmlns="http://www.w3.org/2000/svg">
<g filter="url(#filter0_bd_8_945)">
<rect x="10" y="6" width="433" height="128.088" rx="64.0438" fill="url(#paint0_linear_8_945)" shape-rendering="crispEdges"/>
<path d="M66.5277 80.0438V56.6858H71.5257L82.7797 71.7818V56.6858H87.8117V80.0438H82.7797L71.5257 64.9478V80.0438H66.5277ZM100.814 76.0658C102.208 76.0658 103.908 75.4198 104.86 74.5018L108.022 77.7318C106.458 79.3638 103.432 80.4518 100.848 80.4518C95.6118 80.4518 91.5318 76.6098 91.5318 71.2038C91.5318 65.8998 95.4418 62.0578 100.576 62.0578C106.084 62.0578 109.314 66.2398 109.314 72.8698H96.6318C97.2098 74.7738 98.7398 76.0658 100.814 76.0658ZM100.78 66.4438C98.9098 66.4438 97.3458 67.5318 96.6998 69.2998H104.554C104.078 67.5658 102.786 66.4438 100.78 66.4438ZM129.23 80.0438H123.892L120.084 74.7398L116.242 80.0438H111.006L117.466 71.1018L111.278 62.4658H116.65L120.152 67.3618L123.688 62.4658H128.924L122.77 70.9998L129.23 80.0438ZM141.178 75.6918L142.368 78.9218C141.348 79.8398 139.75 80.4518 138.322 80.4518C135.228 80.4518 133.052 78.2418 133.052 75.0798V66.4778H130.638V62.4658H133.052V57.6378H137.812V62.4658H141.62V66.4778H137.812V74.2978C137.812 75.4538 138.56 76.2698 139.478 76.2698C140.158 76.2698 140.838 76.0318 141.178 75.6918ZM179.011 68.3478C179.011 70.8638 178.195 73.2098 176.801 75.1818L178.977 77.0858L176.427 80.0438L174.047 77.9698C171.973 79.5338 169.389 80.4518 166.601 80.4518C159.903 80.4518 154.191 74.9098 154.191 68.3478C154.191 61.7858 159.903 56.2778 166.601 56.2778C173.367 56.2778 179.011 61.7858 179.011 68.3478ZM166.601 75.8958C167.961 75.8958 169.253 75.4878 170.341 74.7738L167.621 72.3938L170.171 69.4358L172.993 71.8838C173.571 70.8298 173.877 69.6058 173.877 68.3478C173.877 64.3018 170.545 60.8338 166.601 60.8338C162.691 60.8338 159.359 64.3018 159.359 68.3478C159.359 72.4278 162.691 75.8958 166.601 75.8958ZM194.227 62.4658H199.191V80.0438H194.227V77.8338C193.173 79.4318 191.201 80.4518 188.923 80.4518C185.115 80.4518 182.395 77.6298 182.395 73.6518V62.4658H187.189V72.5978C187.189 74.7738 188.549 76.2698 190.521 76.2698C192.595 76.2698 194.193 74.7738 194.193 72.8698L194.227 72.9718V62.4658ZM211.745 76.0658C213.139 76.0658 214.839 75.4198 215.791 74.5018L218.953 77.7318C217.389 79.3638 214.363 80.4518 211.779 80.4518C206.543 80.4518 202.463 76.6098 202.463 71.2038C202.463 65.8998 206.373 62.0578 211.507 62.0578C217.015 62.0578 220.245 66.2398 220.245 72.8698H207.563C208.141 74.7738 209.671 76.0658 211.745 76.0658ZM211.711 66.4438C209.841 66.4438 208.277 67.5318 207.631 69.2998H215.485C215.009 67.5658 213.717 66.4438 211.711 66.4438ZM230.2 80.4518C227.378 80.4518 224.386 79.4998 222.278 77.7998L224.42 74.3658C225.984 75.4878 227.956 76.3378 230.302 76.3378C231.628 76.3378 232.58 75.7938 232.58 75.0118C232.58 73.9238 231.288 73.5838 229.486 73.1078C225.882 72.2238 223.094 71.2378 223.06 67.7698C223.026 64.4378 225.78 62.0578 229.928 62.0578C232.444 62.0578 234.926 62.9418 236.864 64.2338L234.858 67.7698C233.26 66.7838 231.424 66.2058 229.928 66.2058C228.704 66.2058 227.854 66.6478 227.854 67.2598C227.854 68.2118 228.568 68.4838 230.948 69.1298C233.974 69.9118 237.34 70.9318 237.34 74.7738C237.34 78.2418 234.518 80.4518 230.2 80.4518ZM249.918 75.6918L251.108 78.9218C250.088 79.8398 248.49 80.4518 247.062 80.4518C243.968 80.4518 241.792 78.2418 241.792 75.0798V66.4778H239.378V62.4658H241.792V57.6378H246.552V62.4658H250.36V66.4778H246.552V74.2978C246.552 75.4538 247.3 76.2698 248.218 76.2698C248.898 76.2698 249.578 76.0318 249.918 75.6918ZM256.699 60.0518C255.169 60.0518 253.979 58.8278 253.979 57.3318C253.979 55.9378 255.169 54.6798 256.699 54.6798C258.161 54.6798 259.351 55.9378 259.351 57.3318C259.351 58.8278 258.161 60.0518 256.699 60.0518ZM254.183 80.0438V62.4658H259.147V80.0438H254.183ZM272.117 80.4518C266.881 80.4518 262.495 76.2358 262.495 71.2378C262.495 66.2398 266.881 62.0578 272.117 62.0578C277.319 62.0578 281.671 66.2398 281.671 71.2378C281.671 76.2358 277.319 80.4518 272.117 80.4518ZM272.117 76.2698C274.735 76.2698 276.945 73.9578 276.945 71.2378C276.945 68.5178 274.735 66.2398 272.117 66.2398C269.465 66.2398 267.255 68.5178 267.255 71.2378C267.255 73.9578 269.465 76.2698 272.117 76.2698ZM295.196 62.0578C299.004 62.0578 301.724 64.8798 301.724 68.8578V80.0438H296.93V69.9118C296.93 67.7358 295.57 66.2398 293.598 66.2398C291.524 66.2398 289.926 67.7358 289.926 69.6398L289.892 69.5378V80.0438H284.928V62.4658H289.892V64.6758C290.946 63.0778 292.918 62.0578 295.196 62.0578Z" fill="white"/>
<path d="M384.774 66.1868L373.615 74.1993C373.415 74.3415 373.2 74.4419 372.977 74.5004C372.21 74.7069 371.363 74.4321 370.871 73.7493C370.238 72.8677 370.44 71.6399 371.321 71.0076L378.464 65.8794C367.874 62.8741 359.563 63.1234 353.078 64.8581C345.721 66.831 340.645 70.7466 337.335 74.2754C334.029 77.8011 332.523 80.9358 332.406 81.1913C332.4 81.2025 332.4 81.2025 332.4 81.2025L332.4 81.204C332.148 81.7627 331.666 82.1473 331.115 82.2952C330.694 82.4076 330.232 82.3825 329.802 82.1886C328.813 81.7437 328.372 80.581 328.816 79.5909C328.878 79.459 330.443 76.0017 334.116 71.967C337.785 67.9394 343.601 63.3271 352.061 61.0611C359.258 59.1295 368.32 58.9266 379.444 62.0717L374.288 54.7626C373.662 53.8754 373.874 52.6514 374.759 52.0246C375.646 51.3983 376.871 51.6103 377.498 52.4965L385.234 63.4582C385.856 64.3389 385.65 65.5565 384.774 66.1868Z" fill="white"/>
</g>
<defs>
<filter id="filter0_bd_8_945" x="-37" y="-41" width="527" height="222.088" filterUnits="userSpaceOnUse" color-interpolation-filters="sRGB">
<feFlood flood-opacity="0" result="BackgroundImageFix"/>
<feGaussianBlur in="BackgroundImageFix" stdDeviation="23.5"/>
<feComposite in2="SourceAlpha" operator="in" result="effect1_backgroundBlur_8_945"/>
<feColorMatrix in="SourceAlpha" type="matrix" values="0 0 0 0 0 0 0 0 0 0 0 0 0 0 0 0 0 0 127 0" result="hardAlpha"/>
<feOffset dy="4"/>
<feGaussianBlur stdDeviation="5"/>
<feComposite in2="hardAlpha" operator="out"/>
<feColorMatrix type="matrix" values="0 0 0 0 0 0 0 0 0 0 0 0 0 0 0 0 0 0 0.24 0"/>
<feBlend mode="normal" in2="effect1_backgroundBlur_8_945" result="effect2_dropShadow_8_945"/>
<feBlend mode="normal" in="SourceGraphic" in2="effect2_dropShadow_8_945" result="shape"/>
</filter>
<linearGradient id="paint0_linear_8_945" x1="390.574" y1="-49.1927" x2="202.954" y2="375.347" gradientUnits="userSpaceOnUse">
<stop stop-color="#FFBB73"/>
<stop offset="0.05" stop-color="#FFB768"/>
<stop offset="0.13" stop-color="#FFAD4C"/>
<stop offset="0.25" stop-color="#FF9D1F"/>
<stop offset="0.31" stop-color="#FF9300"/>
<stop offset="0.41" stop-color="#FF8707"/>
<stop offset="0.57" stop-color="#FF671D"/>
<stop offset="0.79" stop-color="#FF353F"/>
<stop offset="1" stop-color="#FF0063"/>
</linearGradient>
</defs>
</svg>
