
<svg width="453" height="148" viewBox="0 0 453 148" fill="none" xmlns="http://www.w3.org/2000/svg">
<g filter="url(#filter0_bd_2143_461)">
<rect x="10" y="6" width="433" height="128" rx="64" fill="url(#paint0_linear_2143_461)" shape-rendering="crispEdges"/>
<path d="M67.7444 80V56.642H71.9944L84.3364 73.064V56.642H88.5524V80H84.3364L71.9944 63.578V80H67.7444ZM101.76 76.736C103.392 76.736 105.33 75.988 106.316 74.968L108.934 77.688C107.404 79.32 104.344 80.408 101.794 80.408C96.7621 80.408 92.6141 76.566 92.6141 71.16C92.6141 65.89 96.5581 62.014 101.556 62.014C106.996 62.014 110.158 66.128 110.158 72.622H96.8981C97.4081 75.036 99.2441 76.736 101.76 76.736ZM101.726 65.686C99.4141 65.686 97.5441 67.148 96.9321 69.46H106.18C105.704 67.25 104.208 65.686 101.726 65.686ZM129.87 80H125.28L120.996 74.118L116.678 80H112.156L118.752 71.024L112.462 62.422H117.018L121.03 67.896L125.042 62.422H129.564L123.274 70.99L129.87 80ZM141.584 76.226L142.774 79.014C141.788 79.864 140.36 80.408 139.034 80.408C136.11 80.408 134.07 78.3 134.07 75.342V65.856H131.52V62.422H134.07V57.594H138.116V62.422H142.094V65.856H138.116V74.832C138.116 76.022 138.864 76.872 139.85 76.872C140.564 76.872 141.21 76.6 141.584 76.226ZM179.389 68.304C179.389 70.922 178.505 73.37 177.009 75.342L179.355 77.382L177.111 80L174.595 77.824C172.521 79.422 169.937 80.408 167.149 80.408C160.485 80.408 154.875 74.866 154.875 68.304C154.875 61.742 160.485 56.234 167.149 56.234C173.779 56.234 179.389 61.742 179.389 68.304ZM167.149 76.532C168.747 76.532 170.243 76.022 171.501 75.138L168.475 72.486L170.719 69.868L173.847 72.588C174.595 71.33 175.037 69.868 175.037 68.304C175.037 63.85 171.433 60.11 167.149 60.11C162.831 60.11 159.193 63.85 159.193 68.304C159.193 72.792 162.831 76.532 167.149 76.532ZM195.048 62.422H199.196V80H195.048V77.654C193.96 79.286 191.92 80.408 189.608 80.408C185.766 80.408 183.08 77.586 183.08 73.608V62.422H187.092V72.792C187.092 75.172 188.622 76.872 190.798 76.872C192.974 76.872 194.776 75.41 195.048 73.54V62.422ZM211.961 76.736C213.593 76.736 215.531 75.988 216.517 74.968L219.135 77.688C217.605 79.32 214.545 80.408 211.995 80.408C206.963 80.408 202.815 76.566 202.815 71.16C202.815 65.89 206.759 62.014 211.757 62.014C217.197 62.014 220.359 66.128 220.359 72.622H207.099C207.609 75.036 209.445 76.736 211.961 76.736ZM211.927 65.686C209.615 65.686 207.745 67.148 207.133 69.46H216.381C215.905 67.25 214.409 65.686 211.927 65.686ZM230.449 80.408C227.763 80.408 224.873 79.456 222.765 77.756L224.635 74.866C226.335 76.09 228.307 76.906 230.517 76.906C232.183 76.906 233.339 76.192 233.339 75.104C233.339 73.744 231.809 73.302 229.803 72.758C225.995 71.772 223.581 70.684 223.547 67.556C223.547 64.258 226.267 62.014 230.177 62.014C232.591 62.014 235.005 62.864 236.909 64.122L235.175 67.148C233.509 66.094 231.707 65.55 230.177 65.55C228.715 65.55 227.593 66.128 227.593 67.114C227.593 68.236 228.511 68.576 231.197 69.358C234.155 70.174 237.351 71.194 237.351 74.866C237.351 78.232 234.563 80.408 230.449 80.408ZM249.727 76.226L250.917 79.014C249.931 79.864 248.503 80.408 247.177 80.408C244.253 80.408 242.213 78.3 242.213 75.342V65.856H239.663V62.422H242.213V57.594H246.259V62.422H250.237V65.856H246.259V74.832C246.259 76.022 247.007 76.872 247.993 76.872C248.707 76.872 249.353 76.6 249.727 76.226ZM256.244 59.77C254.918 59.77 253.864 58.648 253.864 57.39C253.864 56.132 254.918 55.044 256.244 55.044C257.536 55.044 258.59 56.132 258.59 57.39C258.59 58.648 257.536 59.77 256.244 59.77ZM254.136 80V62.422H258.284V80H254.136ZM271.369 80.408C266.269 80.408 261.951 76.192 261.951 71.194C261.951 66.196 266.269 62.014 271.369 62.014C276.469 62.014 280.787 66.196 280.787 71.194C280.787 76.192 276.469 80.408 271.369 80.408ZM271.369 76.872C274.259 76.872 276.707 74.288 276.707 71.194C276.707 68.134 274.259 65.55 271.369 65.55C268.445 65.55 265.997 68.134 265.997 71.194C265.997 74.288 268.445 76.872 271.369 76.872ZM293.972 62.014C297.814 62.014 300.5 64.836 300.5 68.814V80H296.488V69.63C296.488 67.25 294.958 65.55 292.782 65.55C290.606 65.55 288.804 67.012 288.532 68.882V80H284.384V62.422H288.532V64.768C289.62 63.136 291.66 62.014 293.972 62.014Z" fill="white"/>
<path d="M383.774 66.1421L372.615 74.1547C372.415 74.2969 372.2 74.3973 371.977 74.4557C371.21 74.6622 370.363 74.3874 369.871 73.7046C369.238 72.823 369.44 71.5953 370.321 70.9629L377.464 65.8347C366.874 62.8294 358.563 63.0787 352.078 64.8134C344.721 66.7863 339.645 70.7019 336.335 74.2307C333.029 77.7564 331.523 80.8911 331.406 81.1466C331.4 81.1578 331.4 81.1578 331.4 81.1578L331.4 81.1594C331.148 81.718 330.666 82.1026 330.115 82.2505C329.694 82.3629 329.232 82.3378 328.802 82.1439C327.813 81.699 327.372 80.5363 327.816 79.5462C327.878 79.4143 329.443 75.957 333.116 71.9223C336.785 67.8947 342.601 63.2824 351.061 61.0164C358.258 59.0849 367.32 58.8819 378.444 62.027L373.288 54.718C372.662 53.8307 372.874 52.6067 373.759 51.9799C374.646 51.3536 375.871 51.5656 376.498 52.4519L384.234 63.4135C384.856 64.2942 384.65 65.5118 383.774 66.1421Z" fill="white"/>
</g>
<defs>
<filter id="filter0_bd_2143_461" x="-37" y="-41" width="527" height="222" filterUnits="userSpaceOnUse" color-interpolation-filters="sRGB">
<feFlood flood-opacity="0" result="BackgroundImageFix"/>
<feGaussianBlur in="BackgroundImageFix" stdDeviation="23.5"/>
<feComposite in2="SourceAlpha" operator="in" result="effect1_backgroundBlur_2143_461"/>
<feColorMatrix in="SourceAlpha" type="matrix" values="0 0 0 0 0 0 0 0 0 0 0 0 0 0 0 0 0 0 127 0" result="hardAlpha"/>
<feOffset dy="4"/>
<feGaussianBlur stdDeviation="5"/>
<feComposite in2="hardAlpha" operator="out"/>
<feColorMatrix type="matrix" values="0 0 0 0 0 0 0 0 0 0 0 0 0 0 0 0 0 0 0.24 0"/>
<feBlend mode="normal" in2="effect1_backgroundBlur_2143_461" result="effect2_dropShadow_2143_461"/>
<feBlend mode="normal" in="SourceGraphic" in2="effect2_dropShadow_2143_461" result="shape"/>
</filter>
<linearGradient id="paint0_linear_2143_461" x1="390.574" y1="-49.155" x2="203.169" y2="375.189" gradientUnits="userSpaceOnUse">
<stop stop-color="#FFBB73"/>
<stop offset="0.05" stop-color="#FFB768"/>
<stop offset="0.13" stop-color="#FFAD4C"/>
<stop offset="0.25" stop-color="#FF9D1F"/>
<stop offset="0.31" stop-color="#FF9300"/>
<stop offset="0.41" stop-color="#FF8707"/>
<stop offset="0.57" stop-color="#FF671D"/>
<stop offset="0.79" stop-color="#FF353F"/>
<stop offset="1" stop-color="#FF0063"/>
</linearGradient>
</defs>
</svg>
