<svg width="660" height="328" viewBox="0 0 660 328" fill="none" xmlns="http://www.w3.org/2000/svg">
<g filter="url(#filter0_d_2018_20)">
<path d="M23 1H637C646.941 1 655 9.05888 655 19V223.107C655 233.048 646.941 241.107 637 241.107H161.119C156.345 241.107 151.767 243.003 148.391 246.379L81.0755 313.695C69.7361 325.034 50.3476 317.003 50.3476 300.967V259.107C50.3476 249.166 42.2888 241.107 32.3476 241.107H23C13.0589 241.107 5 233.048 5 223.107V19C5 9.05888 13.0589 1 23 1Z" fill="white" fill-opacity="0.8" shape-rendering="crispEdges"/>
<path d="M23 1H637C646.941 1 655 9.05888 655 19V223.107C655 233.048 646.941 241.107 637 241.107H161.119C156.345 241.107 151.767 243.003 148.391 246.379L81.0755 313.695C69.7361 325.034 50.3476 317.003 50.3476 300.967V259.107C50.3476 249.166 42.2888 241.107 32.3476 241.107H23C13.0589 241.107 5 233.048 5 223.107V19C5 9.05888 13.0589 1 23 1Z" stroke="black" stroke-opacity="0.3" shape-rendering="crispEdges"/>
</g>
<defs>
<filter id="filter0_d_2018_20" x="0.5" y="0.5" width="659" height="327.004" filterUnits="userSpaceOnUse" color-interpolation-filters="sRGB">
<feFlood flood-opacity="0" result="BackgroundImageFix"/>
<feColorMatrix in="SourceAlpha" type="matrix" values="0 0 0 0 0 0 0 0 0 0 0 0 0 0 0 0 0 0 127 0" result="hardAlpha"/>
<feOffset dy="4"/>
<feGaussianBlur stdDeviation="2"/>
<feComposite in2="hardAlpha" operator="out"/>
<feColorMatrix type="matrix" values="0 0 0 0 0 0 0 0 0 0 0 0 0 0 0 0 0 0 0.4 0"/>
<feBlend mode="normal" in2="BackgroundImageFix" result="effect1_dropShadow_2018_20"/>
<feBlend mode="normal" in="SourceGraphic" in2="effect1_dropShadow_2018_20" result="shape"/>
</filter>
</defs>
</svg>
