
<svg width="453" height="148" viewBox="0 0 453 148" fill="none" xmlns="http://www.w3.org/2000/svg">
<g filter="url(#filter0_bd_8_929)">
<rect x="10" y="6" width="433" height="128" rx="64" fill="#A2B000" shape-rendering="crispEdges"/>
<path d="M82.1008 80.374C78.0888 80.374 74.6888 79.014 72.1048 76.6L74.5528 73.574C76.6948 75.512 79.1768 76.736 82.2368 76.736C85.1268 76.736 86.6228 75.308 86.6228 73.642C86.6228 71.704 84.9568 71.058 81.2168 70.174C76.3888 69.052 73.0228 67.658 73.0228 63.272C73.0228 59.192 76.4908 56.2 81.4208 56.2C85.1268 56.2 87.9148 57.458 90.2608 59.464L87.9488 62.592C85.9088 60.824 83.5628 59.838 81.2508 59.838C78.9048 59.838 77.3068 61.266 77.3068 62.898C77.3068 64.802 79.0408 65.482 82.7468 66.332C87.6088 67.42 90.8728 68.984 90.8728 73.234C90.8728 77.416 87.6768 80.374 82.1008 80.374ZM104.2 62.014C108.042 62.014 110.728 64.836 110.728 68.814V80H106.716V69.63C106.716 67.25 105.186 65.55 103.01 65.55C100.664 65.55 98.726 67.25 98.726 69.358V80H94.578V56.234H98.726V64.836C99.78 63.136 101.854 62.014 104.2 62.014ZM123.731 80.408C118.631 80.408 114.313 76.192 114.313 71.194C114.313 66.196 118.631 62.014 123.731 62.014C128.831 62.014 133.149 66.196 133.149 71.194C133.149 76.192 128.831 80.408 123.731 80.408ZM123.731 76.872C126.621 76.872 129.069 74.288 129.069 71.194C129.069 68.134 126.621 65.55 123.731 65.55C120.807 65.55 118.359 68.134 118.359 71.194C118.359 74.288 120.807 76.872 123.731 76.872ZM140.438 80L134.488 62.422H138.636L142.308 74.424L146.218 62.422H149.686L153.63 74.424L157.268 62.422H161.416L155.5 80H151.726L147.952 67.964L144.212 80H140.438ZM192.018 80L190.25 75.784H178.962L177.194 80H172.468L182.226 56.642H186.952L196.71 80H192.018ZM180.492 72.112H188.72L184.606 62.286L180.492 72.112ZM209.255 62.014C213.097 62.014 215.783 64.836 215.783 68.814V80H211.771V69.63C211.771 67.25 210.241 65.55 208.065 65.55C205.889 65.55 204.087 67.012 203.815 68.882V80H199.667V62.422H203.815V64.768C204.903 63.136 206.943 62.014 209.255 62.014ZM226.78 80.408C224.094 80.408 221.204 79.456 219.096 77.756L220.966 74.866C222.666 76.09 224.638 76.906 226.848 76.906C228.514 76.906 229.67 76.192 229.67 75.104C229.67 73.744 228.14 73.302 226.134 72.758C222.326 71.772 219.912 70.684 219.878 67.556C219.878 64.258 222.598 62.014 226.508 62.014C228.922 62.014 231.336 62.864 233.24 64.122L231.506 67.148C229.84 66.094 228.038 65.55 226.508 65.55C225.046 65.55 223.924 66.128 223.924 67.114C223.924 68.236 224.842 68.576 227.528 69.358C230.486 70.174 233.682 71.194 233.682 74.866C233.682 78.232 230.894 80.408 226.78 80.408ZM241.774 80L235.824 62.422H239.972L243.644 74.424L247.554 62.422H251.022L254.966 74.424L258.604 62.422H262.752L256.836 80H253.062L249.288 67.964L245.548 80H241.774ZM273.138 76.736C274.77 76.736 276.708 75.988 277.694 74.968L280.312 77.688C278.782 79.32 275.722 80.408 273.172 80.408C268.14 80.408 263.992 76.566 263.992 71.16C263.992 65.89 267.936 62.014 272.934 62.014C278.374 62.014 281.536 66.128 281.536 72.622H268.276C268.786 75.036 270.622 76.736 273.138 76.736ZM273.104 65.686C270.792 65.686 268.922 67.148 268.31 69.46H277.558C277.082 67.25 275.586 65.686 273.104 65.686ZM289.382 65.822C290.504 63.476 292.782 62.014 295.672 62.014V65.55C291.898 65.55 289.382 67.794 289.382 71.126V80H285.234V62.422H289.382V65.822Z" fill="white"/>
<g clip-path="url(#clip0_8_929)">
<path d="M340.046 91.0003C339.99 91.0003 339.944 91.0003 339.888 91.0003C338.398 90.9444 337.03 90.1718 336.239 88.9152C331.24 81.0774 322.481 73.7702 322.397 73.6957C320.479 72.104 320.21 69.2556 321.801 67.338C323.393 65.4205 326.232 65.1505 328.159 66.7423C328.485 67.0122 334.833 72.2902 340.297 79.1226C345.817 72.858 357.323 61.2596 375.288 49.717C377.382 48.3673 380.184 48.9723 381.525 51.0761C382.874 53.1705 382.269 55.9723 380.166 57.3128C355.796 72.9883 343.797 89.0082 343.676 89.1665C342.82 90.3207 341.47 91.0003 340.046 91.0003Z" fill="white"/>
</g>
</g>
<defs>
<filter id="filter0_bd_8_929" x="-37" y="-41" width="527" height="222" filterUnits="userSpaceOnUse" color-interpolation-filters="sRGB">
<feFlood flood-opacity="0" result="BackgroundImageFix"/>
<feGaussianBlur in="BackgroundImageFix" stdDeviation="23.5"/>
<feComposite in2="SourceAlpha" operator="in" result="effect1_backgroundBlur_8_929"/>
<feColorMatrix in="SourceAlpha" type="matrix" values="0 0 0 0 0 0 0 0 0 0 0 0 0 0 0 0 0 0 127 0" result="hardAlpha"/>
<feOffset dy="4"/>
<feGaussianBlur stdDeviation="5"/>
<feComposite in2="hardAlpha" operator="out"/>
<feColorMatrix type="matrix" values="0 0 0 0 0 0 0 0 0 0 0 0 0 0 0 0 0 0 0.24 0"/>
<feBlend mode="normal" in2="effect1_backgroundBlur_8_929" result="effect2_dropShadow_8_929"/>
<feBlend mode="normal" in="SourceGraphic" in2="effect2_dropShadow_8_929" result="shape"/>
</filter>
<clipPath id="clip0_8_929">
<rect width="61.4827" height="42" fill="white" transform="translate(320.759 49)"/>
</clipPath>
</defs>
</svg>
